<svg width="1085" height="759" viewBox="0 0 1085 759" fill="none" xmlns="http://www.w3.org/2000/svg">
<g clip-path="url(#clip0)">
<path opacity="0.1" d="M461.23 29.16C417.16 12.4 370.59 -1.59999 323.05 0.16001C253.15 2.74001 186.05 42.07 153.19 99.82C125.31 148.75 121.87 206.1 109.86 260.4C95.08 327.29 66.72 390.88 36.44 453.05C20.18 486.45 3.02 520.57 0.350003 557.18C-3.35 608.01 22.62 658.66 63.35 692.47C104.08 726.28 158.17 744.12 212.46 748.01C241.35 750.08 271.54 748.16 297.2 735.58C324.35 722.27 344.14 698.22 371.4 685.1C396.66 672.94 426.21 671.24 454.57 672.82C491.598 674.882 528.151 682.154 563.15 694.42C602.79 708.34 639.65 728.51 679.15 742.63C718.65 756.75 762.89 764.63 803.31 752.85C841.31 741.78 871.31 714.9 898.36 687.68C942.591 643.252 983.131 595.297 1019.58 544.29C1043.99 510.08 1066.71 473.99 1077.5 434.12C1098.14 357.89 1069.74 271.89 1006.75 219.83C954.56 176.7 884.52 157.98 815.96 146.62C753.44 136.26 681.15 135.62 623.6 108.62C568.72 82.84 518.78 51.06 461.23 29.16Z" fill="#4E5BEE"/>
<path d="M632.58 619V655.33H642.91L640.91 616.33L632.58 619Z" fill="#AAABB0"/>
<path d="M477.41 611.67V648H487.75L485.75 609L477.41 611.67Z" fill="#AAABB0"/>
<path d="M657.91 558.34C657.91 554.656 654.926 551.67 651.245 551.67C647.564 551.67 644.58 554.656 644.58 558.34V609.67C644.58 613.354 647.564 616.34 651.245 616.34C654.926 616.34 657.91 613.354 657.91 609.67V558.34Z" fill="#AAABB0"/>
<path d="M486.91 544C486.91 540.316 483.926 537.33 480.245 537.33C476.564 537.33 473.58 540.316 473.58 544V609.66C473.58 613.344 476.564 616.33 480.245 616.33C483.926 616.33 486.91 613.344 486.91 609.66V544Z" fill="#AAABB0"/>
<path d="M674.92 164.67C674.92 164.67 688.25 159 690.25 164.67C692.25 170.34 693.25 219.34 693.25 219.34H680.58L674.92 164.67Z" fill="#AAABB0"/>
<path d="M528.92 164.67C528.92 164.67 515.58 159 513.58 164.67C511.58 170.34 510.58 219.34 510.58 219.34H523.25L528.92 164.67Z" fill="#AAABB0"/>
<path d="M530.91 116L528.91 156.67H537.91V115L530.91 116Z" fill="#AAABB0"/>
<path d="M523.25 219.34L525.92 160.67C525.92 160.67 524.92 147.67 556.58 151.67C588.24 155.67 680.92 163.67 680.92 163.67V219.34H523.25Z" fill="#33323D"/>
<path d="M649.92 528.34L644.92 618C644.92 618 571.58 658.67 482.58 620L490.58 525.67L649.92 528.34Z" fill="#33323D"/>
<path d="M580.25 175.33L581.91 233.33H685.25L679.25 156.67L580.25 175.33Z" fill="#444053"/>
<path d="M590.75 490H493.41V613.33H590.75V490Z" fill="#4C4981"/>
<path d="M554.92 540.34C554.92 540.34 568.92 529.34 571.25 532.67C573.58 536 562.93 550.34 558.59 548.67C554.25 547 554.92 540.34 554.92 540.34Z" fill="#FFB9B9"/>
<path d="M943.48 216H304.51V536H943.48V216Z" fill="#504F60"/>
<path d="M523.58 113.67C523.58 113.67 518.58 67 523.58 61.34C528.58 55.68 612.58 2 690.25 65C690.25 65 697.58 65.34 696.25 82C695.466 92.5443 695.52 103.134 696.41 113.67C696.41 113.67 529.25 125.67 523.58 113.67Z" fill="#33323D"/>
<path opacity="0.1" d="M523.58 113.67C523.58 113.67 518.58 67 523.58 61.34C528.58 55.68 612.58 2 690.25 65C690.25 65 697.58 65.34 696.25 82C695.466 92.5443 695.52 103.134 696.41 113.67C696.41 113.67 529.25 125.67 523.58 113.67Z" fill="black"/>
<path d="M523.58 119.67C523.58 119.67 518.58 73 523.58 67.34C528.58 61.68 612.58 8 690.25 71C690.25 71 697.58 71.34 696.25 88C695.466 98.5443 695.52 109.134 696.41 119.67C696.41 119.67 529.25 131.67 523.58 119.67Z" fill="#33323D"/>
<path d="M699.25 98.34C699.25 98.34 704.58 118.34 702.92 121.67C701.26 125 701.56 134.34 701.56 134.34C701.56 134.34 701.92 140.34 699.25 141C696.58 141.66 694.25 142 696.41 144C698.57 146 696.41 149 696.41 149C696.41 149 695.24 153.67 696.41 156.67C697.58 159.67 689.57 160.92 690.25 164.67C690.93 168.42 693.17 179 690.25 179.34C687.33 179.68 691.25 192.67 688.62 192.67C685.99 192.67 684.12 216 684.12 216C684.12 216 665.62 200.34 653.29 204.67C653.29 204.67 654.29 191.67 658.29 187C662.29 182.33 661.08 170.34 661.08 170.34L680.92 110.67L699.25 98.34Z" fill="#4C4981"/>
<path d="M600.25 374.12C595.92 378.91 591.25 353.33 591.25 353.33C591.25 353.33 578.92 370.33 570.92 359C565.38 351.15 569.75 328.91 572.92 316C574.34 310.26 575.54 306.36 575.54 306.36L593.54 303.36C593.54 303.36 593.6 307.28 594 312.04C594.54 318.47 595.71 326.45 598.2 328.36C602.59 331.67 604.59 369.29 600.25 374.12Z" fill="#AE6E79"/>
<path opacity="0.1" d="M590.92 74.67C590.92 74.67 559.58 74.34 551.92 91C544.26 107.66 543.92 113.34 540.92 116C537.92 118.66 573.58 132.67 573.58 132.67L575.25 190C575.25 190 582.25 182.91 593.58 186.12C604.91 189.33 619.25 186.12 619.25 186.12C619.25 186.12 618.58 184.91 627.92 186.12C637.26 187.33 666.92 171.67 666.92 171.67C666.92 171.67 667.41 146.59 666.75 141.25C666.09 135.91 687.91 96.67 687.91 96.67C687.91 96.67 704.91 80.34 687.25 74.67C687.25 74.67 681 65.25 664.92 65.34C648.84 65.43 590.92 74.67 590.92 74.67Z" fill="black"/>
<path d="M590.92 73.67C590.92 73.67 559.58 73.34 551.92 90C544.26 106.66 543.92 112.34 540.92 115C537.92 117.66 573.58 131.67 573.58 131.67L575.25 189C575.25 189 582.25 181.91 593.58 185.12C604.91 188.33 619.25 185.12 619.25 185.12C619.25 185.12 618.58 183.91 627.92 185.12C637.26 186.33 666.92 170.67 666.92 170.67C666.92 170.67 678.58 151.67 677.92 146.34C677.26 141.01 701.25 100.67 701.25 100.67C701.25 100.67 704.92 79.34 687.25 73.67C687.25 73.67 681 64.25 664.92 64.34C648.84 64.43 590.92 73.67 590.92 73.67Z" fill="#4C4981"/>
<path opacity="0.1" d="M594.08 312.01C587.21 309.87 576.43 314.59 573 316.01C574.42 310.27 575.62 306.37 575.62 306.37L593.62 303.37C593.62 303.37 593.65 307.29 594.08 312.01Z" fill="black"/>
<path d="M550.58 115H540.92C540.92 115 538.92 135.34 540.92 141.34C542.92 147.34 543.92 146.47 543.25 150.91C542.58 155.35 547.92 162.15 547.92 162.15C547.92 162.15 548.58 178.91 551.92 185.15C555.26 191.39 548.25 219.37 548.25 219.37C550.162 224.2 552.991 228.615 556.58 232.37C562.25 238.03 565.25 259.03 563.58 267.03C561.91 275.03 568.25 278.03 568.25 278.03C568.25 278.03 570.92 315.37 571.92 315.37C572.92 315.37 592.25 305.37 598.25 314.03L593.58 279.7L593.92 213.37C593.92 213.37 587.58 205.03 590.92 197.7C594.26 190.37 588.25 173.03 588.25 173.03L579.58 134.37L550.58 115Z" fill="#4C4981"/>
<path d="M490.58 642C490.58 642 476.58 639 476.25 642C475.92 645 459.58 675.67 479.92 684.67C500.26 693.67 554.58 713 642.92 688C642.92 688 648.58 690 647.25 677.67C645.92 665.34 645.92 651.67 645.92 651.67C645.92 651.67 632.58 648 622.58 649.34C612.58 650.68 525.58 668.34 490.58 642Z" fill="#33323D"/>
<path opacity="0.1" d="M490.58 642C490.58 642 476.58 639 476.25 642C475.92 645 459.58 675.67 479.92 684.67C500.26 693.67 554.58 713 642.92 688C642.92 688 648.58 690 647.25 677.67C645.92 665.34 645.92 651.67 645.92 651.67C645.92 651.67 632.58 648 622.58 649.34C612.58 650.68 525.58 668.34 490.58 642Z" fill="black"/>
<path d="M490.58 638C490.58 638 476.58 635 476.25 638C475.92 641 459.58 671.67 479.92 680.67C500.26 689.67 554.58 709 642.92 684C642.92 684 648.58 686 647.25 673.67C645.92 661.34 645.92 647.67 645.92 647.67C645.92 647.67 632.58 644 622.58 645.34C612.58 646.68 525.58 664.34 490.58 638Z" fill="#33323D"/>
<path d="M572.22 126.98C571.36 131.87 569.41 136.57 569.11 141.52C568.81 146.47 570.72 152.1 575.29 154.04C576.565 154.421 577.801 154.923 578.98 155.54C580.74 156.73 581.46 158.97 581.83 161.07C582.321 163.781 582.439 166.547 582.18 169.29C581.93 172.05 581.34 175.02 582.7 177.43C585.09 181.7 591.32 181.07 596.06 179.87L594.43 192.5C594.3 193.5 594.22 194.63 594.95 195.31C595.295 195.553 595.685 195.724 596.097 195.813C596.509 195.903 596.936 195.908 597.35 195.83C601.47 195.57 605.71 195 609.24 192.83C612.77 190.66 615.4 186.62 614.73 182.55C613.95 177.83 609.07 174.08 609.73 169.34C610.24 165.67 613.83 163.34 616.19 160.52C620.46 155.36 620.69 147.52 617.34 141.68C613.99 135.84 607.52 132.22 600.86 131.56C597.17 131.19 593.33 131.64 589.86 130.36C588.653 129.917 587.564 129.201 586.679 128.268C585.795 127.334 585.138 126.209 584.76 124.98" fill="#444053"/>
<path d="M455.92 571.67L459.41 564.07C459.41 564.07 478.25 546.52 482.58 545.29C486.91 544.06 504.58 538.7 507.25 538.7C509.92 538.7 558.59 536.03 558.59 536.03L564.25 549.37L503.17 562.78L482.58 577.78L455.92 571.67Z" fill="#767D9F"/>
<path d="M602.67 367L599.48 391.55L598.25 401L583.92 403C583.92 403 582.37 399.68 580.18 394.58C573.53 379.1 561.01 347.18 568.27 341.67C577.92 334.33 580.27 358.67 580.27 358.67L591.27 353.33L602.67 367Z" fill="#FFB9B9"/>
<path d="M600.28 412.67H527.91V522H600.28V412.67Z" fill="white"/>
<path opacity="0.1" d="M600.28 412.67H527.91V522H600.28V412.67Z" fill="black"/>
<path d="M632.807 418.59L561.215 408.005L545.225 516.16L616.816 526.744L632.807 418.59Z" fill="white"/>
<path d="M604.804 423.768L567.954 418.32L559.724 473.985L596.574 479.433L604.804 423.768Z" fill="#4E5BEE"/>
<path d="M600.418 496.426L555.774 489.826L553.986 501.914L598.631 508.515L600.418 496.426Z" fill="#4E5BEE"/>
<path opacity="0.1" d="M619.25 136.83C642.352 136.83 661.08 118.102 661.08 95C661.08 71.8979 642.352 53.17 619.25 53.17C596.148 53.17 577.42 71.8979 577.42 95C577.42 118.102 596.148 136.83 619.25 136.83Z" fill="black"/>
<path d="M619.25 135.83C642.352 135.83 661.08 117.102 661.08 94C661.08 70.8979 642.352 52.17 619.25 52.17C596.148 52.17 577.42 70.8979 577.42 94C577.42 117.102 596.148 135.83 619.25 135.83Z" fill="#AE6E79"/>
<path d="M584.76 125C584.476 123.923 584.578 122.78 585.05 121.77C586.64 118.46 591.17 118.17 594.84 118.34C603.47 118.74 612.94 118.79 619.69 113.34C622.49 111.1 625.62 105.47 629.69 106.54C633.31 107.49 634.82 112.4 638.59 113.49C641.32 114.28 644.15 113.02 646.93 112.49C650.93 111.7 655.03 112.36 659.09 112.39C663.15 112.42 667.56 111.65 670.33 108.68C674.07 104.68 673.46 98.43 673.13 92.95C672.72 85.8712 673.2 78.769 674.56 71.81C675.92 64.89 678.01 57.15 674.19 51.22C670.55 45.57 663.01 44.02 657.86 39.69C653.04 35.69 650.49 29.28 645.4 25.57C638.99 20.9 630.28 21.57 622.4 22.38L605.3 24.2C600.89 24.67 596.3 25.2 592.67 27.83C586.12 32.57 585.22 42.42 579.02 47.61C576.26 49.91 572.73 51.05 569.58 52.77C566.43 54.49 563.39 57.21 563.03 60.77C562.73 63.77 564.35 66.54 565.14 69.43C567.01 76.33 564.09 83.43 562.22 90.38C560.35 97.33 559.99 105.77 565.42 110.38C566.52 111.32 567.8 112.04 568.87 113.02C572.54 116.37 573.04 122.02 572.19 126.9" fill="#444053"/>
<path d="M622.66 146.25C623.212 146.25 623.66 145.131 623.66 143.75C623.66 142.369 623.212 141.25 622.66 141.25C622.108 141.25 621.66 142.369 621.66 143.75C621.66 145.131 622.108 146.25 622.66 146.25Z" fill="#444053"/>
<path d="M622.66 156.67C623.212 156.67 623.66 155.551 623.66 154.17C623.66 152.789 623.212 151.67 622.66 151.67C622.108 151.67 621.66 152.789 621.66 154.17C621.66 155.551 622.108 156.67 622.66 156.67Z" fill="#444053"/>
<path d="M600.48 374.05C601.55 372.82 602.26 369.66 602.67 365.49L590.75 350.63C590.75 350.63 595.8 379.44 600.48 374.05Z" fill="#AE6E79"/>
<path opacity="0.1" d="M613.92 619.67C613.92 619.67 594.36 649.91 533.25 646.67C475.68 643.67 447.58 615.34 448.92 605.34C450.26 595.34 445.25 571 457.58 564C464.73 559.95 474.14 562.35 480.78 565.09C483.074 566.022 485.585 566.284 488.022 565.847C490.459 565.41 492.723 564.291 494.55 562.62C500.62 557.15 511.94 550.99 529.81 555.84C532.109 556.453 534.535 556.408 536.81 555.71C544.25 553.44 561.96 549.5 574.81 558.25C576.841 559.65 579.228 560.443 581.693 560.537C584.158 560.631 586.599 560.021 588.73 558.78L588.91 558.67C594.91 555 622.91 589.67 622.91 589.67C622.91 589.67 624.25 616.34 613.92 619.67Z" fill="black"/>
<path d="M613.92 620.67C613.92 620.67 594.36 650.91 533.25 647.67C475.68 644.67 447.58 616.34 448.92 606.34C450.26 596.34 445.25 572 457.58 565C464.73 560.95 474.14 563.35 480.78 566.09C483.074 567.022 485.585 567.284 488.022 566.847C490.459 566.41 492.723 565.291 494.55 563.62C500.62 558.15 511.94 551.99 529.81 556.84C532.109 557.453 534.535 557.408 536.81 556.71C544.25 554.44 561.96 550.5 574.81 559.25C576.841 560.65 579.228 561.443 581.693 561.537C584.158 561.631 586.599 561.021 588.73 559.78L588.91 559.67C594.91 556 622.91 590.67 622.91 590.67C622.91 590.67 624.25 617.34 613.92 620.67Z" fill="#767D9F"/>
<path opacity="0.1" d="M533.25 632.51C555.253 632.51 573.09 614.673 573.09 592.67C573.09 570.667 555.253 552.83 533.25 552.83C511.247 552.83 493.41 570.667 493.41 592.67C493.41 614.673 511.247 632.51 533.25 632.51Z" fill="black"/>
<path d="M533.25 633.51C555.253 633.51 573.09 615.673 573.09 593.67C573.09 571.667 555.253 553.83 533.25 553.83C511.247 553.83 493.41 571.667 493.41 593.67C493.41 615.673 511.247 633.51 533.25 633.51Z" fill="#FFB9B9"/>
<path d="M521.83 559.23C517.65 560.36 513.53 562.52 511.49 566.07C510.26 568.21 509.83 570.78 508.05 572.56C505.53 575.09 501.28 575.14 497.87 576.56C494.46 577.98 492.21 582.98 495.55 584.56C492.07 584.74 489.49 587.95 489.06 591.14C488.63 594.33 489.84 597.51 491.01 600.55C494.83 610.39 498.94 620.66 507.36 627.66C521.08 639.08 541.76 638.55 560.19 637.34C561.696 637.39 563.189 637.045 564.52 636.34C566.52 635.02 566.77 632.49 567.1 630.27C568.49 620.79 573.63 612.18 576.99 603.13C580.35 594.08 581.73 583.45 576.07 575.44C567.74 563.56 535.85 555.43 521.83 559.23Z" fill="#B96B6B"/>
<path opacity="0.1" d="M599.48 391.55L598.25 401L583.92 403C583.92 403 582.37 399.68 580.18 394.58L599.25 391L599.48 391.55Z" fill="black"/>
<path d="M614.58 600.34L622.92 590.67L621.25 537.34C622.071 533.492 622.629 529.593 622.92 525.67C623.25 520 618.75 507.34 618.75 507.34C619.448 504.806 620.396 502.347 621.58 500C623.58 496 618.76 487 618.76 487C618.76 487 611.58 463.67 614.58 452C617.58 440.33 613.85 433.67 613.85 433.67C613.85 433.67 610.92 420.67 611.25 415.34C611.58 410.01 604.58 405 604.58 405L599.25 392L577.92 396V441C577.92 441 579.25 484 577.92 492.34C576.59 500.68 580.58 508.67 580.58 508.67C580.58 508.67 578.25 521 580.25 525.67C582.25 530.34 586.25 541.67 586.25 541.67C585.508 545.719 585.737 549.887 586.92 553.83C588.92 559.67 586.92 563 586.92 563L614.58 600.34Z" fill="#767D9F"/>
<g opacity="0.1">
<path opacity="0.1" d="M674.59 68.52C673.462 74.3737 672.956 80.33 673.08 86.29C673.166 81.3342 673.684 76.3955 674.63 71.53C675.51 67.09 676.63 62.31 676.39 57.88C676.021 61.462 675.42 65.0161 674.59 68.52Z" fill="black"/>
<path opacity="0.1" d="M568.9 109.8C567.83 108.8 566.55 108.1 565.45 107.15C562.53 104.66 561.3 101.05 561.06 97.15C560.77 102.15 561.79 106.99 565.45 110.15C566.55 111.1 567.83 111.82 568.9 112.8C571.137 115.013 572.433 118.004 572.52 121.15C572.81 116.95 571.96 112.58 568.9 109.8Z" fill="black"/>
<path opacity="0.1" d="M565.71 72.46C565.885 70.3479 565.702 68.2214 565.17 66.17C564.59 64.03 563.55 61.94 563.17 59.79C563.17 60.02 563.09 60.26 563.06 60.51C562.77 63.51 564.39 66.28 565.17 69.17C565.457 70.2464 565.638 71.3483 565.71 72.46Z" fill="black"/>
<path opacity="0.1" d="M670.36 105.39C667.59 108.39 663.18 109.13 659.12 109.1C655.06 109.07 650.95 108.41 646.96 109.21C644.18 109.77 641.35 111.02 638.62 110.21C634.85 109.12 633.34 104.21 629.73 103.26C625.62 102.18 622.49 107.81 619.73 110.05C612.98 115.45 603.51 115.4 594.88 115.05C591.21 114.88 586.68 115.17 585.1 118.49C584.618 119.497 584.515 120.644 584.81 121.72L572.59 123.64C572.544 124.646 572.434 125.648 572.26 126.64L584.81 124.64C584.515 123.564 584.618 122.417 585.1 121.41C586.68 118.09 591.21 117.8 594.88 117.97C603.51 118.37 612.98 118.42 619.73 112.97C622.53 110.73 625.66 105.1 629.73 106.18C633.34 107.12 634.85 112.04 638.62 113.13C641.35 113.91 644.18 112.66 646.96 112.13C650.96 111.33 655.06 111.99 659.12 112.02C663.18 112.05 667.59 111.28 670.36 108.31C673.13 105.34 673.53 100.91 673.36 96.59C673.24 99.94 672.55 103.04 670.36 105.39Z" fill="black"/>
</g>
<g opacity="0.1">
<path opacity="0.1" d="M577.79 153.42C576.612 152.8 575.376 152.297 574.1 151.92C571.93 150.934 570.207 149.172 569.27 146.98C570.02 150.43 571.92 153.57 575.1 154.92C576.376 155.297 577.612 155.8 578.79 156.42C579.543 156.952 580.151 157.663 580.56 158.49C580.16 156.53 579.43 154.53 577.79 153.42Z" fill="black"/>
<path opacity="0.1" d="M594.87 177.75C590.26 178.92 584.24 179.53 581.71 175.62C581.789 176.562 582.061 177.478 582.51 178.31C584.67 182.16 589.95 182.03 594.44 181.08L594.87 177.75Z" fill="black"/>
<path opacity="0.1" d="M613.55 180.49C614.19 184.55 611.55 188.6 608.05 190.73C604.55 192.86 600.28 193.45 596.16 193.73C595.505 193.815 594.839 193.739 594.22 193.51C594.032 193.933 593.972 194.401 594.046 194.858C594.12 195.314 594.326 195.739 594.638 196.081C594.949 196.423 595.354 196.666 595.802 196.781C596.25 196.896 596.722 196.879 597.16 196.73C601.28 196.47 605.52 195.9 609.05 193.73C612.58 191.56 615.22 187.52 614.54 183.45C614.348 182.422 614.015 181.426 613.55 180.49Z" fill="black"/>
<path opacity="0.1" d="M617.99 144.29C618.6 146.721 618.648 149.26 618.128 151.712C617.608 154.164 616.535 156.466 614.99 158.44C612.63 161.3 609.04 163.59 608.53 167.26C608.36 168.947 608.709 170.646 609.53 172.13C609.44 171.51 609.44 170.88 609.53 170.26C610.04 166.59 613.63 164.26 615.99 161.44C619.87 156.75 620.41 149.84 617.99 144.29Z" fill="black"/>
</g>
<g opacity="0.1">
<path opacity="0.1" d="M497.88 578.1C501.28 576.69 505.53 576.64 508.06 574.1C509.84 572.32 510.27 569.75 511.5 567.62C513.5 564.06 517.65 561.91 521.83 560.78C535.83 556.98 567.75 565.1 576.07 576.87C578.508 580.431 579.838 584.634 579.89 588.95C580.21 583.968 578.87 579.02 576.08 574.88C567.76 563.11 535.87 554.99 521.84 558.79C517.66 559.92 513.54 562.07 511.51 565.63C510.28 567.76 509.85 570.33 508.07 572.11C505.54 574.64 501.29 574.69 497.89 576.11C495.3 577.18 493.38 580.34 494.08 582.46C494.359 581.501 494.843 580.614 495.499 579.861C496.156 579.108 496.968 578.507 497.88 578.1Z" fill="black"/>
<path opacity="0.1" d="M489.08 592.63C489.5 589.43 492.08 586.23 495.57 586.05C495.203 585.897 494.876 585.664 494.611 585.368C494.346 585.072 494.151 584.721 494.04 584.34C492.712 584.833 491.545 585.68 490.664 586.788C489.783 587.897 489.221 589.225 489.04 590.63C488.945 591.444 488.945 592.266 489.04 593.08C489.08 592.93 489.08 592.78 489.08 592.63Z" fill="black"/>
</g>
<path d="M700.91 230.24H609.91V348.91H700.91V230.24Z" fill="white"/>
<path opacity="0.1" d="M700.91 230.24H609.91V348.91H700.91V230.24Z" fill="black"/>
<path d="M735.679 237.202L645.996 252.629L666.113 369.581L755.796 354.155L735.679 237.202Z" fill="white"/>
<path d="M688.802 328.731L667.731 332.355L672.458 359.831L693.528 356.207L688.802 328.731Z" fill="#4E5BEE"/>
<path d="M717.959 323.71L696.888 327.334L701.615 354.811L722.685 351.186L717.959 323.71Z" fill="#4E5BEE"/>
<path d="M738.563 283.454L664.669 296.143L669.409 323.744L743.303 311.056L738.563 283.454Z" fill="#4E5BEE"/>
<path d="M732.404 250.512L658.51 263.201L659.568 269.359L733.461 256.67L732.404 250.512Z" fill="#4E5BEE"/>
<path d="M734.827 261.84L660.934 274.529L661.991 280.686L735.885 267.998L734.827 261.84Z" fill="#4E5BEE"/>
<path d="M661.08 198C661.08 198 619.25 240 640.25 250.67C661.25 261.34 674.92 215.17 674.92 215.17L678.24 204.67L661.08 198Z" fill="#AE6E79"/>
<path opacity="0.1" d="M657.42 194.29L652.25 205.71C652.25 205.71 677.75 209.29 683.08 217L679.92 196.85L676.17 188.25L657.42 194.29Z" fill="black"/>
<path d="M658.42 193.29L653.25 204.71C653.25 204.71 678.75 208.29 684.08 216L680.92 195.85L677.17 187.25L658.42 193.29Z" fill="#4C4981"/>
<path d="M812.78 403.26L812.23 403.64L812.99 403.98L813.81 403.91L813.91 403.34L812.78 403.26Z" fill="#464A5F"/>
<path opacity="0.1" d="M812.78 403.26L812.23 403.64L812.99 403.98L813.81 403.91L813.91 403.34L812.78 403.26Z" fill="black"/>
<path d="M812.78 403.26L812.22 403.62L811.78 403.08L812.05 402.64L812.3 402.56L812.78 403.26Z" fill="#9C9CA1"/>
<path opacity="0.1" d="M812.78 403.26L812.22 403.62L811.78 403.08L812.05 402.64L812.3 402.56L812.78 403.26Z" fill="black"/>
<path d="M911.21 334.15L870.27 275.02C869.907 274.492 869.444 274.041 868.907 273.693C868.37 273.344 867.769 273.105 867.139 272.989C866.51 272.873 865.863 272.882 865.237 273.016C864.611 273.15 864.017 273.406 863.49 273.77L772.23 336.41C771.162 337.143 770.429 338.269 770.191 339.542C769.953 340.815 770.23 342.131 770.96 343.2L811.79 403.08L911.21 334.15Z" fill="#9C9CA1"/>
<path opacity="0.1" d="M911.21 334.15L870.27 275.02C869.907 274.492 869.444 274.041 868.907 273.693C868.37 273.344 867.769 273.105 867.139 272.989C866.51 272.873 865.863 272.882 865.237 273.016C864.611 273.15 864.017 273.406 863.49 273.77L772.23 336.41C771.162 337.143 770.429 338.269 770.191 339.542C769.953 340.815 770.23 342.131 770.96 343.2L811.79 403.08L911.21 334.15Z" fill="black"/>
<path d="M912.21 334.29L871.27 275.16C870.906 274.632 870.442 274.181 869.904 273.832C869.366 273.483 868.765 273.244 868.134 273.128C867.504 273.012 866.856 273.021 866.229 273.155C865.602 273.29 865.008 273.546 864.48 273.91L773.23 336.59C772.163 337.323 771.429 338.449 771.19 339.721C770.95 340.993 771.223 342.309 771.95 343.38L812.78 403.29L912.21 334.29Z" fill="#9C9CA1"/>
<path d="M946.43 345.98L912.43 335.06L812.99 403.99L847.53 415.29C848.303 415.541 849.124 415.609 849.928 415.487C850.731 415.366 851.496 415.058 852.16 414.59L946.71 347.83C946.887 347.731 947.03 347.58 947.119 347.397C947.208 347.214 947.24 347.009 947.209 346.808C947.179 346.607 947.088 346.42 946.949 346.273C946.81 346.125 946.629 346.023 946.43 345.98Z" fill="#464A5F"/>
<path opacity="0.1" d="M946.43 345.98L912.43 335.06L812.99 403.99L847.53 415.29C848.303 415.541 849.124 415.609 849.928 415.487C850.731 415.366 851.496 415.058 852.16 414.59L946.71 347.83C946.887 347.731 947.03 347.58 947.119 347.397C947.208 347.214 947.24 347.009 947.209 346.808C947.179 346.607 947.088 346.42 946.949 346.273C946.81 346.125 946.629 346.023 946.43 345.98Z" fill="black"/>
<path d="M946.22 345.29L912.22 334.36L812.78 403.29L847.32 414.57C848.092 414.826 848.913 414.896 849.717 414.777C850.521 414.657 851.286 414.35 851.95 413.88L946.5 347.12C946.67 347.018 946.806 346.867 946.891 346.688C946.975 346.508 947.005 346.307 946.974 346.111C946.944 345.915 946.857 345.732 946.722 345.586C946.588 345.439 946.413 345.336 946.22 345.29Z" fill="#464A5F"/>
<g opacity="0.1">
<path opacity="0.1" d="M896.15 331.65L893.64 328.05C893.489 327.841 893.264 327.699 893.01 327.652C892.757 327.606 892.495 327.659 892.28 327.8L888.55 330.29C888.341 330.438 888.196 330.66 888.146 330.911C888.095 331.162 888.144 331.423 888.28 331.64L890.59 335.19C890.735 335.403 890.955 335.551 891.207 335.605C891.458 335.659 891.721 335.615 891.94 335.48L895.87 333.01C896.084 332.864 896.232 332.64 896.284 332.387C896.337 332.133 896.288 331.869 896.15 331.65Z" fill="black"/>
<path opacity="0.1" d="M889.45 336.29L886.93 332.7C886.779 332.491 886.553 332.349 886.3 332.302C886.047 332.255 885.785 332.308 885.57 332.45L881.85 334.96C881.639 335.106 881.492 335.328 881.44 335.579C881.388 335.83 881.434 336.092 881.57 336.31L883.88 339.86C884.023 340.074 884.243 340.225 884.495 340.281C884.746 340.337 885.01 340.294 885.23 340.16L889.17 337.69C889.281 337.617 889.377 337.523 889.451 337.413C889.526 337.303 889.578 337.179 889.604 337.049C889.63 336.918 889.63 336.784 889.603 336.654C889.577 336.524 889.525 336.4 889.45 336.29Z" fill="black"/>
<path opacity="0.1" d="M882.41 341.16L879.89 337.57C879.739 337.361 879.513 337.219 879.26 337.172C879.007 337.125 878.745 337.178 878.53 337.32L874.8 339.83C874.588 339.978 874.441 340.202 874.391 340.456C874.341 340.709 874.39 340.972 874.53 341.19L876.84 344.74C876.985 344.953 877.205 345.101 877.457 345.155C877.708 345.209 877.971 345.164 878.19 345.03L882.12 342.56C882.232 342.488 882.329 342.395 882.404 342.285C882.48 342.175 882.532 342.051 882.559 341.921C882.586 341.791 882.587 341.656 882.561 341.525C882.536 341.395 882.484 341.271 882.41 341.16Z" fill="black"/>
<path opacity="0.1" d="M875.28 346.1L872.76 342.5C872.609 342.294 872.386 342.153 872.135 342.107C871.884 342.06 871.624 342.111 871.41 342.25L867.68 344.77C867.47 344.918 867.326 345.14 867.276 345.391C867.225 345.642 867.273 345.903 867.41 346.12L869.72 349.67C869.863 349.882 870.081 350.031 870.33 350.086C870.579 350.142 870.84 350.1 871.06 349.97L875 347.49C875.11 347.417 875.204 347.324 875.278 347.214C875.351 347.105 875.403 346.982 875.429 346.853C875.455 346.724 875.455 346.591 875.43 346.462C875.404 346.332 875.353 346.21 875.28 346.1Z" fill="black"/>
<path opacity="0.1" d="M868.16 351.03L865.64 347.44C865.489 347.231 865.263 347.089 865.01 347.042C864.757 346.995 864.495 347.048 864.28 347.19L860.56 349.7C860.349 349.846 860.202 350.068 860.15 350.319C860.098 350.57 860.144 350.832 860.28 351.05L862.59 354.6C862.733 354.814 862.953 354.965 863.205 355.021C863.456 355.077 863.72 355.034 863.94 354.9L867.88 352.42C867.99 352.347 868.084 352.254 868.158 352.144C868.231 352.035 868.283 351.912 868.309 351.783C868.335 351.654 868.335 351.521 868.309 351.392C868.284 351.262 868.233 351.14 868.16 351.03Z" fill="black"/>
<path opacity="0.1" d="M861.35 356.41L858.22 351.95C858.187 351.9 858.144 351.858 858.094 351.825C858.045 351.792 857.989 351.769 857.93 351.758C857.871 351.747 857.811 351.748 857.753 351.76C857.694 351.772 857.639 351.796 857.59 351.83L853.01 354.92C852.96 354.952 852.916 354.994 852.882 355.044C852.848 355.093 852.825 355.149 852.812 355.208C852.8 355.266 852.8 355.327 852.812 355.386C852.823 355.444 852.847 355.5 852.88 355.55L855.75 359.96C855.816 360.061 855.918 360.133 856.036 360.159C856.154 360.185 856.278 360.164 856.38 360.1L861.22 357.1C861.278 357.067 861.328 357.022 861.367 356.967C861.406 356.913 861.433 356.851 861.445 356.785C861.457 356.719 861.455 356.652 861.439 356.587C861.422 356.522 861.392 356.462 861.35 356.41Z" fill="black"/>
<path opacity="0.1" d="M854.23 361.34L851.08 356.88C851.046 356.83 851.002 356.787 850.951 356.754C850.901 356.721 850.844 356.698 850.785 356.687C850.725 356.676 850.664 356.677 850.605 356.689C850.546 356.702 850.49 356.726 850.44 356.76L845.86 359.85C845.762 359.919 845.694 360.023 845.672 360.141C845.65 360.258 845.674 360.38 845.74 360.48L848.61 364.89C848.64 364.942 848.681 364.988 848.73 365.024C848.779 365.059 848.835 365.084 848.894 365.098C848.953 365.111 849.015 365.112 849.074 365.1C849.134 365.088 849.19 365.064 849.24 365.03L854.07 362.03C854.132 362.001 854.186 361.959 854.229 361.906C854.272 361.853 854.302 361.79 854.318 361.724C854.333 361.658 854.333 361.588 854.318 361.522C854.303 361.455 854.273 361.393 854.23 361.34Z" fill="black"/>
<path opacity="0.1" d="M847.92 365.71L844.79 361.29C844.72 361.193 844.615 361.128 844.497 361.108C844.38 361.087 844.259 361.113 844.16 361.18L839.58 364.26C839.48 364.329 839.41 364.434 839.386 364.554C839.361 364.673 839.384 364.797 839.45 364.9L842.32 369.31C842.387 369.409 842.49 369.479 842.607 369.505C842.724 369.531 842.847 369.511 842.95 369.45L847.79 366.45C847.857 366.419 847.915 366.372 847.959 366.313C848.004 366.255 848.034 366.186 848.047 366.114C848.059 366.041 848.054 365.967 848.032 365.896C848.01 365.826 847.972 365.762 847.92 365.71Z" fill="black"/>
<path opacity="0.1" d="M840.86 370.59L837.73 366.13C837.66 366.034 837.555 365.968 837.437 365.948C837.32 365.927 837.199 365.953 837.1 366.02L832.52 369.1C832.469 369.133 832.426 369.176 832.392 369.227C832.358 369.277 832.334 369.333 832.322 369.393C832.31 369.452 832.309 369.514 832.321 369.573C832.333 369.633 832.356 369.69 832.39 369.74L835.26 374.15C835.327 374.249 835.43 374.319 835.547 374.345C835.664 374.371 835.787 374.352 835.89 374.29L840.73 371.29C840.788 371.256 840.839 371.21 840.878 371.155C840.917 371.099 840.943 371.036 840.955 370.97C840.968 370.903 840.966 370.835 840.949 370.77C840.933 370.704 840.902 370.643 840.86 370.59Z" fill="black"/>
<path opacity="0.1" d="M834.02 375.29L830.89 370.83C830.857 370.78 830.814 370.738 830.764 370.705C830.714 370.672 830.659 370.649 830.6 370.638C830.541 370.627 830.481 370.628 830.423 370.64C830.364 370.652 830.309 370.676 830.26 370.71L825.68 373.8C825.629 373.832 825.586 373.874 825.552 373.924C825.518 373.973 825.495 374.029 825.482 374.088C825.47 374.146 825.47 374.207 825.482 374.266C825.493 374.324 825.516 374.38 825.55 374.43L828.42 378.84C828.486 378.941 828.588 379.013 828.706 379.039C828.824 379.065 828.948 379.044 829.05 378.98L833.89 375.98C833.948 375.947 833.998 375.902 834.037 375.847C834.076 375.793 834.103 375.731 834.115 375.665C834.127 375.599 834.125 375.532 834.109 375.467C834.092 375.402 834.062 375.342 834.02 375.29Z" fill="black"/>
<path opacity="0.1" d="M827.18 380.07L824.08 375.6C824.01 375.504 823.905 375.438 823.787 375.418C823.669 375.397 823.549 375.423 823.45 375.49L818.87 378.57C818.819 378.603 818.775 378.646 818.741 378.697C818.707 378.747 818.684 378.803 818.672 378.863C818.659 378.922 818.659 378.984 818.671 379.043C818.683 379.103 818.706 379.16 818.74 379.21L821.61 383.62C821.677 383.719 821.78 383.789 821.897 383.815C822.014 383.841 822.137 383.822 822.24 383.76L827.08 380.76C827.136 380.724 827.183 380.677 827.219 380.622C827.255 380.566 827.279 380.503 827.288 380.438C827.298 380.372 827.293 380.306 827.274 380.242C827.255 380.179 827.223 380.12 827.18 380.07Z" fill="black"/>
<path opacity="0.1" d="M820.34 384.8L817.21 380.34C817.177 380.29 817.134 380.248 817.084 380.215C817.035 380.182 816.979 380.159 816.92 380.148C816.861 380.137 816.801 380.138 816.743 380.15C816.684 380.162 816.629 380.186 816.58 380.22L812 383.29C811.95 383.322 811.906 383.365 811.872 383.414C811.838 383.463 811.815 383.519 811.803 383.578C811.79 383.636 811.79 383.697 811.802 383.756C811.813 383.814 811.836 383.87 811.87 383.92L814.74 388.33C814.806 388.431 814.908 388.503 815.026 388.529C815.144 388.555 815.268 388.534 815.37 388.47L820.21 385.47C820.265 385.437 820.312 385.392 820.349 385.34C820.386 385.287 820.411 385.227 820.424 385.164C820.436 385.101 820.435 385.036 820.42 384.973C820.406 384.91 820.379 384.851 820.34 384.8Z" fill="black"/>
<path opacity="0.1" d="M891.65 325.14L889.13 321.54C888.979 321.331 888.753 321.189 888.5 321.142C888.247 321.096 887.985 321.149 887.77 321.29L884.08 323.81C883.869 323.956 883.722 324.178 883.67 324.429C883.618 324.68 883.664 324.942 883.8 325.16L886.11 328.71C886.254 328.923 886.475 329.071 886.727 329.125C886.978 329.179 887.241 329.135 887.46 329L891.4 326.53C891.617 326.379 891.765 326.147 891.812 325.887C891.859 325.626 891.801 325.358 891.65 325.14Z" fill="black"/>
<path opacity="0.1" d="M881.8 310.91L879.28 307.29C879.129 307.084 878.906 306.943 878.655 306.897C878.404 306.85 878.144 306.902 877.93 307.04L874.2 309.55C873.989 309.696 873.842 309.918 873.79 310.169C873.738 310.42 873.785 310.682 873.92 310.9L876.23 314.45C876.373 314.664 876.593 314.815 876.845 314.871C877.096 314.927 877.36 314.884 877.58 314.75L881.52 312.28C881.736 312.134 881.887 311.908 881.939 311.652C881.992 311.396 881.942 311.13 881.8 310.91Z" fill="black"/>
<path opacity="0.1" d="M884.94 329.78L882.42 326.19C882.269 325.984 882.046 325.843 881.795 325.797C881.544 325.75 881.284 325.802 881.07 325.94L877.34 328.45C877.131 328.598 876.986 328.82 876.936 329.071C876.885 329.322 876.933 329.583 877.07 329.8L879.37 333.35C879.513 333.564 879.733 333.715 879.985 333.771C880.236 333.827 880.5 333.784 880.72 333.65L884.66 331.18C884.771 331.107 884.867 331.013 884.941 330.903C885.016 330.793 885.068 330.669 885.094 330.539C885.12 330.408 885.12 330.274 885.093 330.144C885.067 330.014 885.015 329.89 884.94 329.78Z" fill="black"/>
<path opacity="0.1" d="M877.9 334.65L875.38 331.06C875.229 330.851 875.003 330.709 874.75 330.662C874.497 330.615 874.235 330.668 874.02 330.81L870.3 333.29C870.086 333.436 869.938 333.66 869.885 333.913C869.833 334.167 869.881 334.431 870.02 334.65L872.33 338.2C872.474 338.413 872.695 338.561 872.947 338.615C873.198 338.669 873.461 338.625 873.68 338.49L877.62 336.02C877.836 335.874 877.987 335.648 878.039 335.392C878.091 335.136 878.041 334.87 877.9 334.65Z" fill="black"/>
<path opacity="0.1" d="M870.77 339.59L868.26 335.99C868.109 335.781 867.883 335.639 867.63 335.592C867.377 335.545 867.115 335.598 866.9 335.74L863.17 338.29C862.961 338.438 862.816 338.66 862.766 338.911C862.715 339.162 862.763 339.423 862.9 339.64L865.21 343.19C865.354 343.403 865.575 343.551 865.827 343.605C866.078 343.659 866.341 343.614 866.56 343.48L870.49 341.01C870.604 340.937 870.702 340.842 870.779 340.73C870.855 340.619 870.908 340.493 870.934 340.36C870.96 340.227 870.959 340.09 870.931 339.958C870.903 339.826 870.848 339.701 870.77 339.59Z" fill="black"/>
<path opacity="0.1" d="M875.25 315.78L872.73 312.19C872.579 311.984 872.356 311.843 872.105 311.797C871.854 311.75 871.594 311.802 871.38 311.94L867.65 314.45C867.439 314.596 867.292 314.818 867.24 315.069C867.188 315.32 867.234 315.582 867.37 315.8L869.68 319.35C869.823 319.564 870.043 319.715 870.295 319.771C870.546 319.827 870.81 319.784 871.03 319.65L874.97 317.18C875.081 317.107 875.177 317.013 875.251 316.903C875.326 316.793 875.378 316.669 875.404 316.539C875.43 316.408 875.43 316.274 875.403 316.144C875.377 316.014 875.325 315.89 875.25 315.78Z" fill="black"/>
<path opacity="0.1" d="M868.21 320.66L865.69 317.06C865.539 316.851 865.313 316.709 865.06 316.662C864.807 316.615 864.545 316.668 864.33 316.81L860.61 319.29C860.399 319.436 860.252 319.658 860.2 319.909C860.148 320.16 860.194 320.422 860.33 320.64L862.64 324.19C862.784 324.403 863.005 324.551 863.257 324.605C863.508 324.659 863.771 324.615 863.99 324.48L867.93 322.01C868.141 321.864 868.288 321.642 868.34 321.391C868.392 321.14 868.345 320.878 868.21 320.66Z" fill="black"/>
<path opacity="0.1" d="M861.08 325.59L858.56 322C858.411 321.792 858.188 321.65 857.937 321.601C857.686 321.553 857.426 321.603 857.21 321.74L853.48 324.29C853.271 324.438 853.126 324.66 853.076 324.911C853.025 325.162 853.073 325.423 853.21 325.64L855.52 329.19C855.663 329.404 855.883 329.555 856.135 329.611C856.386 329.667 856.65 329.624 856.87 329.49L860.8 327.01C860.914 326.937 861.012 326.842 861.089 326.731C861.165 326.619 861.218 326.493 861.244 326.36C861.27 326.227 861.269 326.091 861.241 325.958C861.213 325.826 861.158 325.701 861.08 325.59Z" fill="black"/>
<path opacity="0.1" d="M863.65 344.52L861.13 340.93C860.981 340.722 860.758 340.58 860.507 340.531C860.256 340.483 859.996 340.533 859.78 340.67L856.08 343.19C855.871 343.338 855.726 343.56 855.676 343.811C855.625 344.062 855.673 344.323 855.81 344.54L858.08 348.09C858.223 348.302 858.441 348.451 858.69 348.506C858.939 348.562 859.201 348.521 859.42 348.39L863.36 345.91C863.471 345.838 863.566 345.745 863.641 345.636C863.715 345.527 863.768 345.405 863.795 345.275C863.821 345.146 863.823 345.013 863.798 344.883C863.773 344.754 863.723 344.63 863.65 344.52Z" fill="black"/>
<path opacity="0.1" d="M856.53 349.45L854.01 345.86C853.859 345.651 853.633 345.509 853.38 345.462C853.127 345.415 852.865 345.468 852.65 345.61L848.93 348.12C848.719 348.266 848.572 348.488 848.52 348.739C848.468 348.99 848.514 349.252 848.65 349.47L850.96 353.02C851.103 353.234 851.323 353.385 851.575 353.441C851.826 353.497 852.09 353.454 852.31 353.32L856.25 350.85C856.361 350.777 856.457 350.683 856.531 350.573C856.606 350.463 856.658 350.339 856.684 350.209C856.71 350.078 856.71 349.944 856.683 349.814C856.657 349.684 856.605 349.56 856.53 349.45Z" fill="black"/>
<path opacity="0.1" d="M849.72 354.83L846.59 350.37C846.557 350.32 846.514 350.278 846.464 350.245C846.414 350.212 846.359 350.189 846.3 350.178C846.241 350.167 846.181 350.168 846.123 350.18C846.064 350.192 846.009 350.216 845.96 350.25L841.38 353.34C841.329 353.372 841.286 353.415 841.252 353.464C841.218 353.513 841.194 353.569 841.182 353.628C841.17 353.686 841.17 353.747 841.182 353.806C841.193 353.864 841.216 353.92 841.25 353.97L844.12 358.38C844.151 358.431 844.193 358.476 844.242 358.51C844.291 358.545 844.347 358.57 844.405 358.583C844.464 358.596 844.525 358.597 844.584 358.586C844.643 358.576 844.7 358.553 844.75 358.52L849.59 355.52C849.648 355.487 849.698 355.442 849.737 355.387C849.776 355.333 849.802 355.271 849.815 355.205C849.827 355.139 849.825 355.072 849.809 355.007C849.792 354.942 849.762 354.882 849.72 354.83Z" fill="black"/>
<path opacity="0.1" d="M843.41 359.2L840.28 354.73C840.21 354.634 840.105 354.568 839.987 354.548C839.87 354.527 839.749 354.553 839.65 354.62L835.08 357.7C834.98 357.769 834.91 357.874 834.886 357.994C834.861 358.113 834.884 358.237 834.95 358.34L837.82 362.75C837.887 362.849 837.99 362.919 838.107 362.945C838.224 362.971 838.347 362.952 838.45 362.89L843.29 359.89C843.35 359.859 843.402 359.814 843.442 359.759C843.482 359.705 843.509 359.642 843.521 359.575C843.533 359.508 843.529 359.439 843.509 359.374C843.49 359.309 843.456 359.25 843.41 359.2Z" fill="black"/>
<path opacity="0.1" d="M836.35 364.08L833.22 359.62C833.15 359.524 833.045 359.458 832.927 359.438C832.81 359.417 832.689 359.443 832.59 359.51L828.01 362.59C827.96 362.622 827.916 362.665 827.882 362.714C827.848 362.763 827.825 362.819 827.812 362.878C827.8 362.936 827.8 362.997 827.812 363.056C827.823 363.114 827.847 363.17 827.88 363.22L830.75 367.64C830.817 367.739 830.92 367.809 831.037 367.835C831.154 367.861 831.277 367.842 831.38 367.78L836.22 364.78C836.278 364.746 836.329 364.7 836.368 364.645C836.406 364.589 836.433 364.526 836.445 364.46C836.458 364.393 836.456 364.325 836.439 364.26C836.423 364.194 836.392 364.133 836.35 364.08Z" fill="black"/>
<path opacity="0.1" d="M829.51 368.82L826.38 364.36C826.347 364.31 826.304 364.268 826.254 364.235C826.204 364.202 826.149 364.179 826.09 364.168C826.031 364.157 825.971 364.158 825.913 364.17C825.854 364.182 825.799 364.206 825.75 364.24L821.17 367.29C821.12 367.322 821.076 367.365 821.042 367.414C821.008 367.463 820.985 367.519 820.972 367.578C820.96 367.636 820.96 367.697 820.972 367.756C820.983 367.814 821.006 367.87 821.04 367.92L823.91 372.33C823.976 372.431 824.078 372.503 824.196 372.529C824.314 372.555 824.438 372.534 824.54 372.47L829.38 369.47C829.432 369.437 829.477 369.393 829.512 369.342C829.547 369.291 829.571 369.233 829.583 369.173C829.595 369.112 829.595 369.049 829.582 368.989C829.57 368.928 829.545 368.871 829.51 368.82Z" fill="black"/>
<path opacity="0.1" d="M873.21 327.88L870.69 324.29C870.539 324.084 870.315 323.943 870.064 323.897C869.813 323.85 869.554 323.902 869.34 324.04L865.61 326.56C865.4 326.708 865.256 326.93 865.205 327.181C865.155 327.432 865.203 327.693 865.34 327.91L867.65 331.46C867.794 331.67 868.013 331.817 868.262 331.871C868.511 331.925 868.771 331.881 868.99 331.75L872.93 329.28C873.041 329.207 873.137 329.113 873.211 329.003C873.286 328.893 873.338 328.769 873.364 328.639C873.39 328.508 873.39 328.374 873.363 328.244C873.337 328.114 873.285 327.99 873.21 327.88Z" fill="black"/>
<path opacity="0.1" d="M866.08 332.82L863.56 329.22C863.409 329.011 863.184 328.869 862.93 328.822C862.677 328.775 862.415 328.828 862.2 328.97L858.48 331.49C858.269 331.636 858.122 331.858 858.07 332.109C858.018 332.36 858.065 332.622 858.2 332.84L860.51 336.39C860.653 336.604 860.873 336.755 861.125 336.811C861.376 336.867 861.64 336.824 861.86 336.69L865.8 334.21C865.91 334.137 866.004 334.044 866.078 333.934C866.152 333.825 866.203 333.702 866.229 333.573C866.255 333.444 866.255 333.311 866.23 333.182C866.204 333.052 866.153 332.93 866.08 332.82Z" fill="black"/>
<path opacity="0.1" d="M858.97 337.75L856.45 334.16C856.299 333.951 856.073 333.809 855.82 333.762C855.567 333.716 855.305 333.769 855.09 333.91L851.36 336.42C851.15 336.568 851.006 336.79 850.955 337.041C850.905 337.292 850.953 337.553 851.09 337.77L853.4 341.32C853.543 341.534 853.763 341.685 854.015 341.741C854.266 341.797 854.529 341.754 854.75 341.62L858.68 339.14C858.79 339.068 858.886 338.975 858.961 338.866C859.035 338.757 859.087 338.635 859.114 338.505C859.141 338.376 859.142 338.243 859.118 338.113C859.093 337.984 859.043 337.86 858.97 337.75Z" fill="black"/>
<path opacity="0.1" d="M851.84 342.68L849.32 339.09C849.169 338.884 848.946 338.743 848.695 338.697C848.444 338.65 848.184 338.701 847.97 338.84L844.24 341.35C844.031 341.498 843.886 341.72 843.836 341.971C843.785 342.222 843.833 342.483 843.97 342.7L846.28 346.29C846.423 346.502 846.641 346.651 846.89 346.706C847.139 346.762 847.4 346.721 847.62 346.59L851.56 344.12C851.677 344.047 851.778 343.951 851.856 343.838C851.934 343.725 851.988 343.596 852.014 343.461C852.041 343.326 852.039 343.187 852.009 343.052C851.979 342.918 851.921 342.791 851.84 342.68Z" fill="black"/>
<path opacity="0.1" d="M845.08 348.06L841.95 343.6C841.917 343.55 841.874 343.508 841.824 343.475C841.775 343.442 841.719 343.419 841.66 343.408C841.602 343.397 841.541 343.398 841.483 343.41C841.424 343.422 841.369 343.446 841.32 343.48L836.74 346.57C836.64 346.637 836.571 346.741 836.547 346.859C836.522 346.976 836.545 347.099 836.61 347.2L839.48 351.62C839.512 351.67 839.555 351.714 839.604 351.748C839.653 351.782 839.709 351.805 839.768 351.818C839.826 351.83 839.887 351.83 839.946 351.818C840.004 351.807 840.06 351.783 840.11 351.75L844.95 348.75C845.008 348.717 845.058 348.672 845.097 348.617C845.136 348.563 845.163 348.501 845.175 348.435C845.187 348.369 845.185 348.302 845.169 348.237C845.153 348.172 845.122 348.112 845.08 348.06Z" fill="black"/>
<path opacity="0.1" d="M838.73 352.43L835.6 347.96C835.528 347.863 835.421 347.797 835.302 347.777C835.183 347.756 835.06 347.782 834.96 347.85L830.39 350.93C830.289 350.999 830.22 351.104 830.195 351.224C830.171 351.343 830.194 351.467 830.26 351.57L833.13 355.98C833.195 356.081 833.298 356.153 833.416 356.179C833.534 356.205 833.657 356.184 833.76 356.12L838.6 353.12C838.658 353.087 838.708 353.042 838.747 352.987C838.786 352.933 838.812 352.871 838.825 352.805C838.837 352.739 838.835 352.672 838.819 352.607C838.802 352.542 838.772 352.482 838.73 352.43Z" fill="black"/>
<path opacity="0.1" d="M831.67 357.29L828.54 352.82C828.468 352.723 828.361 352.657 828.242 352.637C828.123 352.616 828 352.642 827.9 352.71L823.32 355.79C823.221 355.861 823.153 355.966 823.129 356.084C823.105 356.203 823.127 356.327 823.19 356.43L826.07 360.84C826.135 360.941 826.238 361.013 826.356 361.039C826.474 361.065 826.597 361.044 826.7 360.98L831.53 357.98C831.59 357.949 831.643 357.905 831.684 357.851C831.724 357.797 831.753 357.735 831.766 357.669C831.78 357.602 831.778 357.534 831.761 357.468C831.745 357.403 831.713 357.342 831.67 357.29Z" fill="black"/>
<path opacity="0.1" d="M824.83 362.05L821.7 357.59C821.666 357.54 821.622 357.497 821.572 357.464C821.521 357.431 821.464 357.408 821.405 357.397C821.345 357.386 821.284 357.387 821.225 357.399C821.166 357.412 821.11 357.436 821.06 357.47L816.48 360.56C816.382 360.629 816.314 360.733 816.292 360.851C816.27 360.968 816.294 361.09 816.36 361.19L819.23 365.6C819.261 365.652 819.302 365.698 819.351 365.733C819.399 365.769 819.455 365.794 819.514 365.808C819.574 365.821 819.635 365.821 819.694 365.81C819.754 365.798 819.81 365.774 819.86 365.74L824.69 362.74C824.75 362.709 824.803 362.665 824.844 362.611C824.885 362.557 824.913 362.495 824.926 362.429C824.94 362.362 824.938 362.294 824.921 362.228C824.905 362.163 824.873 362.102 824.83 362.05Z" fill="black"/>
<path opacity="0.1" d="M822.67 373.55L819.54 369.09C819.47 368.994 819.365 368.928 819.247 368.908C819.13 368.887 819.009 368.913 818.91 368.98L814.33 372.06C814.279 372.092 814.236 372.135 814.202 372.184C814.168 372.233 814.144 372.289 814.132 372.348C814.12 372.406 814.12 372.467 814.132 372.526C814.143 372.584 814.166 372.64 814.2 372.69L817.07 377.11C817.137 377.209 817.24 377.279 817.357 377.305C817.474 377.331 817.597 377.311 817.7 377.25L822.54 374.25C822.598 374.216 822.649 374.17 822.687 374.114C822.726 374.059 822.753 373.996 822.765 373.93C822.778 373.863 822.775 373.795 822.759 373.729C822.743 373.664 822.712 373.603 822.67 373.55Z" fill="black"/>
<path opacity="0.1" d="M815.83 378.29L812.7 373.83C812.667 373.78 812.624 373.738 812.574 373.705C812.525 373.672 812.469 373.649 812.41 373.638C812.351 373.627 812.291 373.628 812.233 373.64C812.174 373.652 812.119 373.676 812.07 373.71L807.49 376.8C807.44 376.832 807.396 376.874 807.362 376.924C807.328 376.973 807.305 377.029 807.292 377.088C807.28 377.146 807.28 377.207 807.292 377.266C807.303 377.324 807.327 377.38 807.36 377.43L810.23 381.84C810.296 381.941 810.398 382.013 810.516 382.039C810.634 382.065 810.758 382.044 810.86 381.98L815.7 378.98C815.758 378.947 815.808 378.902 815.847 378.847C815.886 378.793 815.913 378.731 815.925 378.665C815.937 378.599 815.935 378.532 815.919 378.467C815.902 378.402 815.872 378.342 815.83 378.29Z" fill="black"/>
<path opacity="0.1" d="M826.57 349.95L823.57 345.75C823.475 345.619 823.334 345.531 823.175 345.503C823.017 345.475 822.853 345.51 822.72 345.6L818.4 348.51C818.333 348.554 818.275 348.612 818.23 348.679C818.185 348.745 818.153 348.821 818.138 348.9C818.122 348.979 818.122 349.06 818.138 349.139C818.153 349.218 818.185 349.293 818.23 349.36L820.93 353.51C820.972 353.579 821.027 353.638 821.092 353.685C821.157 353.732 821.231 353.765 821.31 353.783C821.388 353.8 821.469 353.802 821.548 353.788C821.627 353.774 821.703 353.744 821.77 353.7L826.34 350.83C826.415 350.79 826.481 350.734 826.534 350.667C826.587 350.6 826.625 350.523 826.647 350.44C826.669 350.358 826.673 350.271 826.66 350.187C826.646 350.103 826.616 350.022 826.57 349.95Z" fill="black"/>
<path opacity="0.1" d="M819.73 354.69L816.78 350.49C816.735 350.424 816.677 350.367 816.61 350.323C816.542 350.279 816.467 350.248 816.388 350.233C816.309 350.218 816.228 350.219 816.149 350.236C816.071 350.253 815.996 350.284 815.93 350.33L811.61 353.29C811.543 353.333 811.485 353.39 811.44 353.456C811.395 353.522 811.364 353.596 811.348 353.674C811.333 353.753 811.332 353.833 811.348 353.911C811.364 353.99 811.395 354.064 811.44 354.13L814.14 358.29C814.228 358.424 814.365 358.519 814.521 358.555C814.678 358.59 814.842 358.563 814.98 358.48L819.55 355.61C819.627 355.566 819.694 355.505 819.745 355.433C819.797 355.361 819.833 355.278 819.85 355.191C819.867 355.104 819.865 355.014 819.844 354.927C819.824 354.841 819.785 354.76 819.73 354.69Z" fill="black"/>
<path opacity="0.1" d="M812.89 359.43L809.94 355.22C809.846 355.089 809.704 355.001 809.545 354.973C809.387 354.945 809.223 354.98 809.09 355.07L804.77 357.98C804.703 358.024 804.645 358.082 804.6 358.149C804.555 358.215 804.523 358.291 804.508 358.37C804.492 358.449 804.492 358.53 804.508 358.609C804.524 358.688 804.555 358.763 804.6 358.83L807.3 362.98C807.342 363.049 807.397 363.108 807.462 363.155C807.527 363.202 807.601 363.235 807.68 363.253C807.758 363.27 807.839 363.272 807.918 363.258C807.997 363.244 808.073 363.214 808.14 363.17L812.71 360.3C812.781 360.256 812.842 360.199 812.89 360.131C812.938 360.063 812.971 359.985 812.988 359.904C813.005 359.822 813.005 359.738 812.988 359.657C812.971 359.575 812.938 359.498 812.89 359.43Z" fill="black"/>
<path opacity="0.1" d="M806.14 364.29L803.01 359.82C802.94 359.724 802.835 359.658 802.717 359.638C802.6 359.617 802.479 359.643 802.38 359.71L797.8 362.79C797.699 362.859 797.63 362.964 797.606 363.084C797.581 363.203 797.604 363.327 797.67 363.43L800.54 367.84C800.607 367.939 800.71 368.009 800.827 368.035C800.944 368.061 801.067 368.041 801.17 367.98L806.01 364.98C806.071 364.95 806.124 364.906 806.165 364.852C806.206 364.797 806.234 364.734 806.247 364.667C806.259 364.6 806.256 364.532 806.238 364.466C806.219 364.401 806.186 364.34 806.14 364.29Z" fill="black"/>
<path opacity="0.1" d="M887.08 318.14L884.37 314.29C884.217 314.083 883.991 313.942 883.738 313.898C883.485 313.853 883.224 313.907 883.01 314.05L872.43 321.46C872.225 321.609 872.084 321.83 872.036 322.079C871.987 322.327 872.035 322.585 872.17 322.8L874.72 326.74C874.793 326.849 874.887 326.943 874.997 327.015C875.107 327.088 875.23 327.138 875.359 327.163C875.488 327.188 875.621 327.188 875.75 327.162C875.879 327.135 876.001 327.084 876.11 327.01L886.85 319.5C887.055 319.346 887.194 319.119 887.237 318.866C887.28 318.613 887.223 318.353 887.08 318.14Z" fill="black"/>
<path opacity="0.1" d="M817.97 366.64L814.65 361.95C814.616 361.9 814.572 361.857 814.521 361.824C814.47 361.791 814.413 361.769 814.353 361.759C814.294 361.748 814.232 361.75 814.173 361.764C814.114 361.778 814.059 361.804 814.01 361.84L802.59 369.84C802.493 369.907 802.425 370.009 802.403 370.125C802.381 370.241 802.405 370.362 802.47 370.46L805.59 375.29C805.623 375.342 805.667 375.387 805.718 375.422C805.769 375.457 805.827 375.481 805.887 375.493C805.948 375.505 806.011 375.505 806.071 375.493C806.132 375.48 806.189 375.455 806.24 375.42L817.85 367.29C817.952 367.219 818.021 367.111 818.044 366.99C818.066 366.868 818.04 366.742 817.97 366.64Z" fill="black"/>
<path opacity="0.1" d="M854.3 330.77L851.24 326.29C851.171 326.192 851.067 326.125 850.949 326.102C850.832 326.08 850.71 326.104 850.61 326.17L825.25 343.29C825.15 343.357 825.081 343.461 825.056 343.579C825.032 343.696 825.055 343.819 825.12 343.92L828.25 348.72C828.283 348.772 828.327 348.817 828.378 348.852C828.429 348.887 828.486 348.911 828.547 348.923C828.608 348.935 828.67 348.935 828.731 348.923C828.792 348.91 828.849 348.885 828.9 348.85L854.18 331.41C854.23 331.376 854.273 331.332 854.306 331.282C854.339 331.231 854.361 331.174 854.373 331.115C854.384 331.055 854.383 330.994 854.371 330.935C854.358 330.876 854.334 330.82 854.3 330.77Z" fill="black"/>
</g>
<path d="M896.82 331.77L894.3 328.17C894.149 327.961 893.924 327.819 893.67 327.772C893.417 327.726 893.155 327.779 892.94 327.92L889.22 330.44C889.009 330.586 888.862 330.808 888.81 331.059C888.758 331.31 888.804 331.572 888.94 331.79L891.25 335.34C891.393 335.554 891.613 335.705 891.865 335.761C892.116 335.817 892.38 335.774 892.6 335.64L896.54 333.16C896.65 333.087 896.744 332.994 896.818 332.884C896.892 332.775 896.943 332.652 896.969 332.523C896.995 332.394 896.995 332.261 896.97 332.132C896.944 332.003 896.893 331.88 896.82 331.77Z" fill="#464A5F"/>
<path d="M890.08 336.41L887.56 332.82C887.409 332.614 887.186 332.473 886.935 332.427C886.684 332.38 886.424 332.432 886.21 332.57L882.48 335.08C882.269 335.226 882.122 335.448 882.07 335.699C882.018 335.95 882.065 336.212 882.2 336.43L884.51 339.98C884.653 340.194 884.873 340.345 885.125 340.401C885.376 340.457 885.64 340.414 885.86 340.28L889.8 337.81C889.911 337.737 890.007 337.643 890.082 337.533C890.156 337.423 890.208 337.299 890.234 337.169C890.26 337.038 890.26 336.904 890.233 336.774C890.207 336.644 890.155 336.52 890.08 336.41Z" fill="#464A5F"/>
<path d="M883.08 341.29L880.56 337.7C880.409 337.491 880.184 337.349 879.93 337.302C879.677 337.255 879.415 337.308 879.2 337.45L875.48 339.97C875.269 340.116 875.122 340.338 875.07 340.589C875.018 340.84 875.065 341.102 875.2 341.32L877.51 344.87C877.655 345.083 877.876 345.231 878.127 345.285C878.378 345.339 878.641 345.295 878.86 345.16L882.8 342.69C882.911 342.617 883.007 342.523 883.082 342.413C883.156 342.303 883.208 342.179 883.234 342.049C883.26 341.918 883.26 341.784 883.233 341.654C883.207 341.524 883.155 341.4 883.08 341.29Z" fill="#464A5F"/>
<path d="M875.94 346.22L873.42 342.62C873.269 342.414 873.046 342.273 872.795 342.227C872.544 342.18 872.284 342.231 872.07 342.37L868.34 344.89C868.23 344.964 868.136 345.06 868.064 345.17C867.991 345.281 867.941 345.405 867.917 345.536C867.893 345.666 867.895 345.8 867.923 345.929C867.951 346.059 868.004 346.181 868.08 346.29L870.39 349.84C870.533 350.054 870.753 350.205 871.005 350.261C871.256 350.317 871.52 350.274 871.74 350.14L875.67 347.66C875.786 347.587 875.886 347.49 875.963 347.376C876.041 347.262 876.093 347.134 876.119 346.999C876.144 346.864 876.141 346.725 876.111 346.591C876.08 346.457 876.022 346.331 875.94 346.22Z" fill="#464A5F"/>
<path d="M868.82 351.15L866.3 347.56C866.149 347.354 865.926 347.213 865.675 347.167C865.424 347.12 865.165 347.172 864.95 347.31L861.22 349.82C861.011 349.968 860.866 350.19 860.816 350.441C860.766 350.692 860.814 350.953 860.95 351.17L863.25 354.72C863.393 354.934 863.613 355.085 863.865 355.141C864.116 355.197 864.38 355.154 864.6 355.02L868.54 352.54C868.65 352.467 868.745 352.374 868.818 352.264C868.892 352.155 868.943 352.032 868.969 351.903C868.995 351.774 868.995 351.641 868.97 351.512C868.944 351.383 868.893 351.26 868.82 351.15Z" fill="#464A5F"/>
<path d="M862.01 356.53L858.88 352.07C858.847 352.02 858.804 351.978 858.754 351.945C858.705 351.912 858.649 351.889 858.59 351.878C858.532 351.867 858.471 351.868 858.413 351.88C858.355 351.892 858.299 351.916 858.25 351.95L853.67 355.04C853.62 355.072 853.576 355.114 853.542 355.164C853.508 355.213 853.485 355.269 853.473 355.328C853.461 355.386 853.46 355.447 853.472 355.506C853.483 355.564 853.507 355.62 853.54 355.67L856.41 360.08C856.476 360.181 856.579 360.253 856.696 360.279C856.814 360.305 856.938 360.284 857.04 360.22L861.88 357.22C861.938 357.187 861.989 357.142 862.027 357.087C862.066 357.033 862.093 356.971 862.105 356.905C862.117 356.839 862.115 356.772 862.099 356.707C862.083 356.642 862.052 356.582 862.01 356.53Z" fill="#464A5F"/>
<path d="M854.89 361.46L851.76 357C851.726 356.95 851.682 356.907 851.632 356.874C851.581 356.841 851.524 356.818 851.465 356.807C851.405 356.796 851.344 356.797 851.285 356.809C851.226 356.822 851.17 356.846 851.12 356.88L846.55 359.97C846.5 360.002 846.456 360.045 846.422 360.094C846.388 360.143 846.365 360.199 846.353 360.258C846.34 360.316 846.34 360.377 846.352 360.436C846.363 360.494 846.387 360.55 846.42 360.6L849.29 365.02C849.322 365.07 849.365 365.114 849.414 365.148C849.463 365.182 849.519 365.205 849.578 365.218C849.636 365.23 849.697 365.23 849.756 365.218C849.814 365.207 849.87 365.184 849.92 365.15L854.76 362.15C854.817 362.116 854.866 362.07 854.904 362.016C854.942 361.961 854.968 361.899 854.98 361.834C854.992 361.769 854.99 361.702 854.975 361.638C854.96 361.573 854.931 361.513 854.89 361.46Z" fill="#464A5F"/>
<path d="M848.58 365.83L845.45 361.36C845.38 361.264 845.275 361.198 845.157 361.178C845.04 361.157 844.919 361.183 844.82 361.25L840.24 364.29C840.14 364.359 840.07 364.464 840.046 364.584C840.022 364.703 840.045 364.827 840.11 364.93L842.98 369.34C843.047 369.439 843.15 369.509 843.267 369.535C843.384 369.561 843.507 369.542 843.61 369.48L848.45 366.48C848.502 366.447 848.547 366.403 848.582 366.352C848.617 366.301 848.641 366.243 848.653 366.183C848.666 366.122 848.665 366.059 848.653 365.999C848.64 365.938 848.615 365.881 848.58 365.83Z" fill="#464A5F"/>
<path d="M841.52 370.72L838.39 366.29C838.32 366.193 838.215 366.128 838.097 366.108C837.98 366.087 837.859 366.113 837.76 366.18L833.18 369.26C833.129 369.293 833.086 369.336 833.052 369.387C833.018 369.437 832.994 369.493 832.982 369.553C832.97 369.612 832.97 369.674 832.981 369.733C832.993 369.793 833.016 369.849 833.05 369.9L835.92 374.31C835.987 374.409 836.09 374.479 836.207 374.505C836.324 374.531 836.447 374.511 836.55 374.45L841.39 371.45C841.455 371.418 841.511 371.371 841.555 371.314C841.598 371.256 841.627 371.189 841.64 371.118C841.653 371.047 841.648 370.974 841.627 370.905C841.607 370.835 841.57 370.772 841.52 370.72Z" fill="#464A5F"/>
<path d="M834.68 375.45L831.55 370.99C831.517 370.94 831.474 370.898 831.424 370.865C831.375 370.832 831.319 370.809 831.26 370.798C831.202 370.787 831.141 370.788 831.083 370.8C831.025 370.812 830.969 370.836 830.92 370.87L826.34 373.96C826.29 373.992 826.246 374.035 826.212 374.084C826.178 374.133 826.155 374.189 826.143 374.248C826.13 374.306 826.13 374.367 826.142 374.426C826.153 374.484 826.177 374.54 826.21 374.59L829.08 379C829.112 379.051 829.153 379.096 829.202 379.13C829.251 379.165 829.307 379.19 829.365 379.203C829.424 379.216 829.485 379.217 829.544 379.207C829.603 379.196 829.66 379.173 829.71 379.14L834.55 376.14C834.608 376.107 834.658 376.062 834.697 376.007C834.736 375.953 834.763 375.891 834.775 375.825C834.787 375.759 834.785 375.692 834.769 375.627C834.753 375.562 834.722 375.502 834.68 375.45Z" fill="#464A5F"/>
<path d="M827.84 380.19L824.71 375.72C824.64 375.624 824.535 375.558 824.417 375.538C824.3 375.517 824.179 375.543 824.08 375.61L819.5 378.69C819.4 378.759 819.33 378.864 819.306 378.984C819.282 379.103 819.305 379.227 819.37 379.33L822.24 383.74C822.307 383.839 822.41 383.909 822.527 383.935C822.644 383.961 822.767 383.941 822.87 383.88L827.71 380.88C827.768 380.847 827.818 380.802 827.857 380.747C827.896 380.693 827.923 380.631 827.935 380.565C827.947 380.499 827.945 380.432 827.929 380.367C827.913 380.302 827.882 380.242 827.84 380.19Z" fill="#464A5F"/>
<path d="M821 384.92L817.87 380.46C817.837 380.41 817.794 380.368 817.744 380.335C817.695 380.302 817.639 380.279 817.58 380.268C817.521 380.257 817.461 380.258 817.403 380.27C817.344 380.282 817.289 380.306 817.24 380.34L812.66 383.43C812.61 383.462 812.566 383.505 812.532 383.554C812.498 383.603 812.475 383.659 812.462 383.718C812.45 383.776 812.45 383.837 812.462 383.896C812.473 383.954 812.496 384.01 812.53 384.06L815.4 388.47C815.431 388.521 815.473 388.566 815.522 388.6C815.571 388.635 815.627 388.66 815.685 388.673C815.744 388.686 815.805 388.687 815.864 388.676C815.923 388.666 815.98 388.643 816.03 388.61L820.87 385.61C820.928 385.577 820.978 385.532 821.017 385.477C821.056 385.423 821.082 385.361 821.095 385.295C821.107 385.229 821.105 385.162 821.089 385.097C821.072 385.032 821.042 384.972 821 384.92Z" fill="#464A5F"/>
<path d="M892.31 325.29L889.79 321.69C889.64 321.484 889.416 321.343 889.165 321.297C888.914 321.25 888.655 321.302 888.44 321.44L884.71 323.96C884.501 324.108 884.356 324.33 884.306 324.581C884.256 324.832 884.304 325.093 884.44 325.31L886.74 328.86C886.883 329.074 887.103 329.225 887.355 329.281C887.606 329.337 887.87 329.294 888.09 329.16L892.03 326.68C892.14 326.607 892.235 326.514 892.308 326.404C892.382 326.295 892.433 326.172 892.459 326.043C892.485 325.914 892.485 325.781 892.46 325.652C892.434 325.523 892.383 325.4 892.31 325.29Z" fill="#464A5F"/>
<path d="M882.46 311.03L879.94 307.44C879.789 307.234 879.566 307.093 879.315 307.047C879.064 307 878.804 307.052 878.59 307.19L874.86 309.7C874.651 309.848 874.506 310.07 874.456 310.321C874.405 310.572 874.454 310.833 874.59 311.05L876.9 314.6C877.043 314.812 877.261 314.961 877.51 315.016C877.76 315.072 878.021 315.031 878.24 314.9L882.18 312.43C882.291 312.357 882.387 312.263 882.462 312.153C882.536 312.043 882.588 311.919 882.614 311.789C882.64 311.658 882.64 311.524 882.613 311.394C882.587 311.264 882.535 311.14 882.46 311.03Z" fill="#464A5F"/>
<path d="M885.6 329.9L883.08 326.29C882.929 326.084 882.706 325.943 882.455 325.897C882.204 325.85 881.944 325.902 881.73 326.04L878 328.55C877.791 328.698 877.646 328.92 877.596 329.171C877.545 329.422 877.593 329.683 877.73 329.9L880.04 333.45C880.183 333.662 880.401 333.811 880.65 333.866C880.899 333.922 881.16 333.881 881.38 333.75L885.32 331.28C885.539 331.133 885.692 330.906 885.744 330.648C885.796 330.389 885.745 330.12 885.6 329.9Z" fill="#464A5F"/>
<path d="M878.56 334.77L876.08 331.18C875.929 330.974 875.706 330.833 875.455 330.787C875.204 330.74 874.944 330.792 874.73 330.93L871 333.44C870.788 333.588 870.641 333.812 870.591 334.066C870.541 334.319 870.59 334.582 870.73 334.8L873.03 338.35C873.174 338.563 873.395 338.711 873.647 338.765C873.898 338.819 874.161 338.775 874.38 338.64L878.32 336.17C878.428 336.094 878.52 335.998 878.591 335.886C878.661 335.775 878.709 335.65 878.732 335.52C878.754 335.39 878.75 335.257 878.721 335.128C878.691 334.999 878.637 334.878 878.56 334.77Z" fill="#464A5F"/>
<path d="M871.44 339.71L868.92 336.11C868.769 335.901 868.543 335.759 868.29 335.712C868.037 335.665 867.775 335.718 867.56 335.86L863.84 338.38C863.629 338.526 863.482 338.748 863.43 338.999C863.378 339.25 863.424 339.512 863.56 339.73L865.87 343.28C866.013 343.494 866.233 343.645 866.485 343.701C866.736 343.757 867 343.714 867.22 343.58L871.16 341.1C871.27 341.027 871.364 340.934 871.438 340.824C871.512 340.715 871.563 340.592 871.589 340.463C871.615 340.334 871.615 340.201 871.59 340.072C871.564 339.942 871.513 339.82 871.44 339.71Z" fill="#464A5F"/>
<path d="M875.91 315.9L873.39 312.29C873.239 312.084 873.016 311.943 872.765 311.897C872.514 311.85 872.254 311.902 872.04 312.04L868.31 314.55C868.101 314.698 867.956 314.92 867.906 315.171C867.855 315.422 867.904 315.683 868.04 315.9L870.35 319.45C870.493 319.662 870.711 319.811 870.96 319.866C871.209 319.922 871.471 319.881 871.69 319.75L875.63 317.28C875.849 317.133 876.002 316.906 876.054 316.648C876.106 316.389 876.055 316.12 875.91 315.9Z" fill="#464A5F"/>
<path d="M868.87 320.78L866.35 317.18C866.199 316.974 865.976 316.833 865.725 316.787C865.474 316.74 865.214 316.792 865 316.93L861.27 319.45C861.059 319.596 860.912 319.818 860.86 320.069C860.808 320.32 860.855 320.582 860.99 320.8L863.3 324.35C863.443 324.564 863.663 324.715 863.915 324.771C864.166 324.827 864.43 324.784 864.65 324.65L868.59 322.17C868.7 322.097 868.794 322.004 868.868 321.894C868.942 321.785 868.993 321.662 869.019 321.533C869.045 321.404 869.045 321.271 869.02 321.142C868.994 321.013 868.943 320.89 868.87 320.78Z" fill="#464A5F"/>
<path d="M861.75 325.71L859.23 322.12C859.079 321.911 858.853 321.769 858.6 321.722C858.347 321.675 858.085 321.728 857.87 321.87L854.15 324.38C853.939 324.526 853.792 324.748 853.74 324.999C853.688 325.25 853.734 325.512 853.87 325.73L856.18 329.29C856.323 329.504 856.543 329.655 856.795 329.711C857.046 329.767 857.31 329.724 857.53 329.59L861.46 327.11C861.572 327.038 861.669 326.945 861.744 326.835C861.82 326.725 861.872 326.601 861.899 326.471C861.926 326.341 861.927 326.206 861.901 326.075C861.876 325.945 861.824 325.821 861.75 325.71Z" fill="#464A5F"/>
<path d="M864.31 344.64L861.79 341.05C861.64 340.844 861.416 340.703 861.165 340.657C860.914 340.61 860.655 340.662 860.44 340.8L856.71 343.29C856.501 343.438 856.356 343.66 856.306 343.911C856.256 344.162 856.304 344.423 856.44 344.64L858.75 348.19C858.893 348.402 859.111 348.551 859.36 348.606C859.61 348.662 859.871 348.621 860.09 348.49L864.03 346.01C864.247 345.864 864.397 345.638 864.449 345.382C864.502 345.126 864.452 344.86 864.31 344.64Z" fill="#464A5F"/>
<path d="M857.19 349.57L854.67 345.98C854.519 345.774 854.296 345.633 854.045 345.587C853.794 345.54 853.534 345.592 853.32 345.73L849.59 348.29C849.379 348.436 849.232 348.658 849.18 348.909C849.128 349.16 849.174 349.422 849.31 349.64L851.62 353.19C851.763 353.404 851.983 353.555 852.235 353.611C852.486 353.667 852.75 353.624 852.97 353.49L856.91 351.02C857.028 350.947 857.13 350.851 857.21 350.737C857.289 350.623 857.343 350.493 857.37 350.357C857.396 350.22 857.394 350.08 857.363 349.944C857.332 349.809 857.273 349.681 857.19 349.57Z" fill="#464A5F"/>
<path d="M850.38 354.95L847.25 350.49C847.217 350.44 847.174 350.398 847.124 350.365C847.075 350.332 847.019 350.309 846.96 350.298C846.902 350.287 846.841 350.288 846.783 350.3C846.725 350.312 846.669 350.336 846.62 350.37L842.08 353.46C842.03 353.492 841.986 353.535 841.952 353.584C841.918 353.633 841.895 353.689 841.883 353.748C841.87 353.806 841.87 353.867 841.882 353.926C841.893 353.984 841.917 354.04 841.95 354.09L844.82 358.5C844.852 358.551 844.893 358.596 844.942 358.63C844.991 358.665 845.047 358.69 845.105 358.703C845.164 358.716 845.225 358.717 845.284 358.707C845.343 358.696 845.4 358.673 845.45 358.64L850.29 355.64C850.344 355.603 850.389 355.554 850.423 355.498C850.457 355.442 850.479 355.38 850.488 355.315C850.496 355.25 850.491 355.184 850.473 355.121C850.454 355.058 850.422 355 850.38 354.95Z" fill="#464A5F"/>
<path d="M844.08 359.29L840.95 354.82C840.878 354.723 840.771 354.657 840.652 354.637C840.533 354.616 840.41 354.642 840.31 354.71L835.73 357.79C835.632 357.861 835.564 357.966 835.539 358.084C835.515 358.203 835.537 358.327 835.6 358.43L838.48 362.84C838.546 362.941 838.648 363.013 838.766 363.039C838.884 363.065 839.008 363.044 839.11 362.98L843.94 359.98C844 359.949 844.053 359.905 844.094 359.851C844.135 359.797 844.163 359.735 844.176 359.669C844.19 359.602 844.188 359.534 844.171 359.468C844.155 359.403 844.123 359.342 844.08 359.29Z" fill="#464A5F"/>
<path d="M837.01 364.21L833.88 359.74C833.81 359.644 833.705 359.578 833.587 359.558C833.47 359.537 833.349 359.563 833.25 359.63L828.67 362.71C828.57 362.779 828.5 362.884 828.476 363.004C828.451 363.123 828.475 363.247 828.54 363.35L831.41 367.76C831.477 367.859 831.58 367.929 831.697 367.955C831.814 367.981 831.937 367.962 832.04 367.9L836.88 364.9C836.941 364.87 836.994 364.826 837.035 364.772C837.076 364.717 837.104 364.654 837.117 364.587C837.129 364.521 837.126 364.452 837.108 364.386C837.089 364.321 837.056 364.26 837.01 364.21Z" fill="#464A5F"/>
<path d="M830.18 368.94L827.08 364.48C827.047 364.43 827.004 364.388 826.954 364.355C826.904 364.322 826.849 364.299 826.79 364.288C826.731 364.277 826.671 364.278 826.613 364.29C826.554 364.302 826.499 364.326 826.45 364.36L821.87 367.45C821.77 367.517 821.701 367.621 821.676 367.739C821.652 367.856 821.675 367.979 821.74 368.08L824.61 372.49C824.676 372.591 824.778 372.663 824.896 372.689C825.014 372.715 825.138 372.694 825.24 372.63L830.08 369.63C830.137 369.596 830.186 369.549 830.223 369.493C830.26 369.438 830.284 369.375 830.294 369.309C830.303 369.243 830.298 369.175 830.278 369.112C830.259 369.048 830.225 368.989 830.18 368.94Z" fill="#464A5F"/>
<path d="M873.87 328.01L871.36 324.41C871.209 324.201 870.983 324.059 870.73 324.012C870.477 323.966 870.215 324.019 870 324.16L866.27 326.68C866.061 326.828 865.916 327.05 865.866 327.301C865.815 327.552 865.863 327.813 866 328.03L868.31 331.58C868.454 331.793 868.675 331.941 868.927 331.995C869.178 332.049 869.441 332.005 869.66 331.87L873.59 329.4C873.7 329.327 873.794 329.234 873.868 329.124C873.942 329.015 873.993 328.892 874.019 328.763C874.045 328.634 874.045 328.501 874.02 328.372C873.994 328.243 873.943 328.12 873.87 328.01Z" fill="#464A5F"/>
<path d="M866.75 332.94L864.23 329.35C864.081 329.142 863.858 329 863.607 328.951C863.356 328.903 863.096 328.953 862.88 329.09L859.15 331.61C858.941 331.758 858.796 331.98 858.746 332.231C858.696 332.482 858.744 332.743 858.88 332.96L861.19 336.51C861.333 336.722 861.551 336.871 861.8 336.926C862.05 336.982 862.311 336.94 862.53 336.81L866.47 334.33C866.58 334.257 866.674 334.164 866.748 334.054C866.822 333.945 866.873 333.822 866.899 333.693C866.925 333.564 866.925 333.431 866.9 333.302C866.874 333.172 866.823 333.05 866.75 332.94Z" fill="#464A5F"/>
<path d="M859.63 337.87L857.08 334.29C856.929 334.081 856.704 333.939 856.45 333.892C856.197 333.846 855.935 333.899 855.72 334.04L852.08 336.54C851.869 336.686 851.722 336.908 851.67 337.159C851.618 337.41 851.665 337.672 851.8 337.89L854.11 341.44C854.253 341.654 854.473 341.805 854.725 341.861C854.976 341.917 855.24 341.874 855.46 341.74L859.4 339.27C859.507 339.194 859.599 339.096 859.668 338.985C859.738 338.873 859.785 338.748 859.806 338.618C859.828 338.488 859.823 338.355 859.793 338.226C859.763 338.098 859.707 337.977 859.63 337.87Z" fill="#464A5F"/>
<path d="M852.5 342.8L849.98 339.21C849.829 339.004 849.606 338.863 849.355 338.817C849.104 338.77 848.844 338.822 848.63 338.96L844.9 341.47C844.691 341.618 844.546 341.84 844.496 342.091C844.446 342.342 844.494 342.603 844.63 342.82L846.94 346.37C847.083 346.582 847.301 346.731 847.55 346.786C847.8 346.842 848.061 346.801 848.28 346.67L852.22 344.2C852.331 344.127 852.427 344.033 852.502 343.923C852.576 343.813 852.628 343.689 852.654 343.559C852.68 343.428 852.68 343.294 852.653 343.164C852.627 343.034 852.575 342.91 852.5 342.8Z" fill="#464A5F"/>
<path d="M845.7 348.18L842.57 343.72C842.536 343.67 842.492 343.627 842.442 343.594C842.391 343.561 842.334 343.538 842.275 343.527C842.215 343.516 842.154 343.517 842.095 343.529C842.036 343.542 841.98 343.566 841.93 343.6L837.35 346.69C837.25 346.757 837.181 346.861 837.156 346.979C837.132 347.096 837.155 347.219 837.22 347.32L840.09 351.74C840.123 351.791 840.166 351.834 840.217 351.868C840.267 351.902 840.323 351.926 840.383 351.938C840.442 351.95 840.504 351.951 840.563 351.939C840.623 351.927 840.679 351.904 840.73 351.87L845.56 348.87C845.619 348.838 845.67 348.793 845.71 348.739C845.75 348.685 845.777 348.623 845.791 348.558C845.804 348.492 845.803 348.424 845.787 348.359C845.771 348.294 845.742 348.233 845.7 348.18Z" fill="#464A5F"/>
<path d="M839.39 352.55L836.26 348.09C836.227 348.04 836.184 347.998 836.134 347.965C836.085 347.932 836.029 347.909 835.97 347.898C835.911 347.887 835.851 347.888 835.793 347.9C835.734 347.912 835.679 347.936 835.63 347.97L831.08 351.05C830.98 351.119 830.91 351.224 830.886 351.344C830.861 351.463 830.884 351.587 830.95 351.69L833.82 356.1C833.887 356.199 833.99 356.269 834.107 356.295C834.224 356.321 834.347 356.302 834.45 356.24L839.29 353.24C839.346 353.204 839.393 353.157 839.429 353.102C839.465 353.046 839.489 352.983 839.498 352.918C839.508 352.852 839.503 352.786 839.484 352.722C839.466 352.659 839.433 352.6 839.39 352.55Z" fill="#464A5F"/>
<path d="M832.33 357.44L829.2 352.97C829.128 352.873 829.021 352.807 828.902 352.787C828.783 352.766 828.66 352.792 828.56 352.86L823.99 355.94C823.89 356.009 823.82 356.114 823.796 356.234C823.772 356.353 823.795 356.477 823.86 356.58L826.73 360.99C826.796 361.091 826.899 361.163 827.016 361.189C827.134 361.215 827.258 361.194 827.36 361.13L832.2 358.13C832.258 358.097 832.308 358.052 832.347 357.997C832.386 357.943 832.413 357.881 832.425 357.815C832.437 357.749 832.435 357.682 832.419 357.617C832.403 357.552 832.372 357.492 832.33 357.44Z" fill="#464A5F"/>
<path d="M825.49 362.17L822.36 357.71C822.326 357.66 822.282 357.617 822.232 357.584C822.181 357.551 822.124 357.528 822.065 357.517C822.006 357.506 821.945 357.507 821.885 357.519C821.826 357.532 821.77 357.556 821.72 357.59L817.15 360.68C817.1 360.712 817.056 360.755 817.022 360.804C816.988 360.853 816.965 360.909 816.953 360.968C816.941 361.026 816.94 361.087 816.952 361.146C816.963 361.204 816.987 361.26 817.02 361.31L819.89 365.73C819.923 365.78 819.965 365.824 820.014 365.858C820.063 365.892 820.119 365.915 820.178 365.927C820.236 365.94 820.297 365.94 820.356 365.928C820.415 365.917 820.47 365.893 820.52 365.86L825.36 362.86C825.417 362.826 825.466 362.78 825.504 362.726C825.542 362.671 825.568 362.609 825.58 362.544C825.592 362.479 825.591 362.412 825.575 362.347C825.56 362.283 825.531 362.223 825.49 362.17Z" fill="#464A5F"/>
<path d="M823.34 373.68L820.21 369.21C820.138 369.113 820.031 369.047 819.912 369.027C819.793 369.006 819.67 369.032 819.57 369.1L814.99 372.18C814.89 372.249 814.82 372.354 814.796 372.474C814.772 372.593 814.795 372.717 814.86 372.82L817.73 377.23C817.797 377.329 817.9 377.399 818.017 377.425C818.134 377.451 818.257 377.431 818.36 377.37L823.2 374.37C823.26 374.339 823.313 374.295 823.354 374.241C823.395 374.187 823.423 374.125 823.436 374.059C823.45 373.992 823.448 373.924 823.431 373.858C823.415 373.793 823.384 373.732 823.34 373.68Z" fill="#464A5F"/>
<path d="M816.5 378.41L813.37 373.95C813.336 373.9 813.292 373.857 813.242 373.824C813.191 373.791 813.134 373.768 813.075 373.757C813.015 373.746 812.954 373.747 812.895 373.759C812.836 373.772 812.78 373.796 812.73 373.83L808.15 376.92C808.05 376.987 807.981 377.091 807.957 377.208C807.932 377.326 807.955 377.449 808.02 377.55L810.89 381.96C810.922 382.012 810.965 382.056 811.015 382.091C811.065 382.126 811.121 382.151 811.181 382.164C811.24 382.177 811.302 382.178 811.362 382.167C811.422 382.156 811.479 382.133 811.53 382.1L816.36 379.1C816.42 379.069 816.473 379.025 816.514 378.971C816.555 378.917 816.583 378.855 816.596 378.789C816.61 378.722 816.608 378.654 816.591 378.588C816.575 378.523 816.543 378.462 816.5 378.41Z" fill="#464A5F"/>
<path d="M827.23 350.08L824.28 345.87C824.186 345.739 824.044 345.651 823.885 345.623C823.727 345.595 823.563 345.63 823.43 345.72L819.08 348.63C818.946 348.721 818.854 348.862 818.822 349.02C818.79 349.179 818.822 349.344 818.91 349.48L821.61 353.64C821.7 353.775 821.839 353.87 821.998 353.904C822.157 353.938 822.323 353.907 822.46 353.82L827.02 350.95C827.093 350.909 827.157 350.853 827.208 350.786C827.259 350.719 827.295 350.643 827.315 350.561C827.335 350.479 827.337 350.394 827.323 350.312C827.308 350.229 827.277 350.15 827.23 350.08Z" fill="#464A5F"/>
<path d="M820.39 354.81L817.44 350.61C817.395 350.544 817.337 350.487 817.27 350.443C817.203 350.399 817.127 350.368 817.048 350.353C816.969 350.338 816.888 350.339 816.809 350.356C816.731 350.373 816.656 350.404 816.59 350.45L812.27 353.37C812.137 353.46 812.044 353.598 812.013 353.755C811.981 353.912 812.012 354.076 812.1 354.21L814.8 358.37C814.89 358.505 815.029 358.6 815.187 358.636C815.345 358.671 815.511 358.644 815.65 358.56L820.22 355.69C820.289 355.644 820.349 355.584 820.395 355.515C820.441 355.445 820.473 355.367 820.489 355.286C820.505 355.204 820.504 355.119 820.487 355.038C820.47 354.956 820.437 354.879 820.39 354.81Z" fill="#464A5F"/>
<path d="M813.55 359.55L810.55 355.34C810.458 355.21 810.318 355.122 810.161 355.094C810.004 355.066 809.842 355.1 809.71 355.19L805.38 358.1C805.246 358.191 805.154 358.332 805.122 358.49C805.09 358.649 805.122 358.814 805.21 358.95L807.91 363.11C808 363.245 808.139 363.34 808.298 363.374C808.457 363.408 808.623 363.377 808.76 363.29L813.33 360.42C813.404 360.38 813.469 360.325 813.521 360.258C813.573 360.192 813.61 360.115 813.631 360.033C813.652 359.952 813.655 359.866 813.641 359.783C813.627 359.7 813.596 359.621 813.55 359.55Z" fill="#464A5F"/>
<path d="M806.81 364.42L803.68 359.95C803.608 359.853 803.501 359.787 803.382 359.767C803.263 359.746 803.14 359.772 803.04 359.84L798.46 362.92C798.361 362.991 798.294 363.097 798.271 363.216C798.249 363.335 798.274 363.458 798.34 363.56L801.21 367.97C801.276 368.071 801.378 368.143 801.496 368.169C801.614 368.195 801.738 368.174 801.84 368.11L806.68 365.11C806.738 365.077 806.788 365.032 806.827 364.977C806.866 364.923 806.893 364.861 806.905 364.795C806.917 364.729 806.915 364.662 806.899 364.597C806.882 364.532 806.852 364.472 806.81 364.42Z" fill="#464A5F"/>
<path d="M887.75 318.29L885.08 314.43C884.928 314.223 884.701 314.082 884.448 314.038C884.195 313.993 883.934 314.047 883.72 314.19L873.08 321.6C872.875 321.749 872.734 321.97 872.686 322.219C872.638 322.468 872.685 322.725 872.82 322.94L875.38 326.88C875.453 326.989 875.548 327.083 875.657 327.155C875.767 327.228 875.89 327.278 876.019 327.303C876.148 327.329 876.281 327.328 876.41 327.302C876.539 327.275 876.661 327.224 876.77 327.15L887.5 319.64C887.706 319.489 887.847 319.266 887.893 319.015C887.94 318.764 887.888 318.504 887.75 318.29Z" fill="#464A5F"/>
<path d="M818.63 366.76L815.31 362.07C815.276 362.02 815.232 361.977 815.181 361.944C815.13 361.911 815.073 361.889 815.013 361.879C814.954 361.868 814.892 361.87 814.833 361.884C814.774 361.898 814.719 361.924 814.67 361.96L803.25 369.96C803.152 370.029 803.084 370.133 803.062 370.251C803.04 370.368 803.064 370.49 803.13 370.59L806.26 375.41C806.293 375.462 806.337 375.507 806.388 375.542C806.439 375.577 806.497 375.601 806.557 375.613C806.618 375.625 806.681 375.625 806.741 375.613C806.802 375.6 806.859 375.575 806.91 375.54L818.52 367.41C818.62 367.338 818.687 367.229 818.708 367.108C818.729 366.986 818.701 366.861 818.63 366.76Z" fill="#464A5F"/>
<path d="M854.96 330.89L851.96 326.44C851.891 326.34 851.786 326.27 851.666 326.246C851.547 326.221 851.423 326.245 851.32 326.31L825.97 343.41C825.92 343.442 825.876 343.485 825.842 343.534C825.808 343.583 825.785 343.639 825.772 343.698C825.76 343.756 825.76 343.817 825.772 343.876C825.783 343.934 825.807 343.99 825.84 344.04L828.96 348.84C828.993 348.892 829.037 348.937 829.088 348.972C829.139 349.007 829.197 349.031 829.257 349.043C829.318 349.055 829.381 349.055 829.441 349.043C829.502 349.03 829.559 349.005 829.61 348.97L854.89 331.53C854.983 331.454 855.043 331.344 855.056 331.224C855.069 331.105 855.034 330.985 854.96 330.89Z" fill="#464A5F"/>
<path opacity="0.1" d="M855.08 315.61L841.6 296.02C841.227 295.476 840.654 295.101 840.006 294.977C839.358 294.854 838.687 294.991 838.14 295.36L801.01 320.29C800.737 320.475 800.502 320.712 800.321 320.988C800.139 321.263 800.013 321.572 799.951 321.896C799.889 322.22 799.891 322.553 799.958 322.877C800.025 323.2 800.154 323.507 800.34 323.78L814.08 343.93C814.265 344.204 814.502 344.438 814.778 344.62C815.054 344.801 815.363 344.926 815.687 344.988C816.012 345.049 816.345 345.045 816.668 344.977C816.992 344.909 817.298 344.777 817.57 344.59L854.44 319.08C854.71 318.895 854.941 318.658 855.12 318.383C855.299 318.108 855.421 317.8 855.481 317.478C855.54 317.156 855.535 316.825 855.467 316.504C855.398 316.183 855.266 315.88 855.08 315.61Z" fill="black"/>
<path d="M855.7 315.73L842.22 296.14C841.845 295.598 841.273 295.225 840.625 295.101C839.978 294.978 839.308 295.114 838.76 295.48L801.68 320.43C801.405 320.613 801.168 320.849 800.985 321.124C800.802 321.4 800.675 321.708 800.611 322.033C800.548 322.358 800.55 322.692 800.617 323.015C800.683 323.339 800.814 323.647 801 323.92L814.7 344.05C814.885 344.324 815.122 344.558 815.398 344.74C815.674 344.921 815.983 345.046 816.307 345.108C816.632 345.169 816.965 345.165 817.288 345.097C817.612 345.029 817.918 344.897 818.19 344.71L855.08 319.2C855.349 319.013 855.578 318.775 855.755 318.499C855.931 318.224 856.052 317.916 856.11 317.594C856.167 317.271 856.161 316.941 856.09 316.621C856.02 316.301 855.887 315.998 855.7 315.73Z" fill="#939498"/>
<path d="M939.29 347.39L910.69 337.85L818.96 401.57L847.35 410.82C848.115 411.07 848.929 411.138 849.725 411.02C850.522 410.902 851.28 410.601 851.94 410.14L939.55 349.22C939.72 349.119 939.857 348.971 939.943 348.792C940.029 348.614 940.06 348.414 940.032 348.218C940.004 348.022 939.919 347.839 939.787 347.691C939.655 347.544 939.482 347.439 939.29 347.39Z" fill="#4E5BEE"/>
</g>
<defs>
<clipPath id="clip0">
<rect width="1084.15" height="758.57" fill="white"/>
</clipPath>
</defs>
</svg>
