<svg width="174" height="40" viewBox="0 0 174 40" fill="none" xmlns="http://www.w3.org/2000/svg">
<path d="M34.1422 5.85781C30.3647 2.08031 25.3422 0 20 0C14.6578 0 9.63531 2.08031 5.85781 5.85781C2.08031 9.63531 0 14.6578 0 20C0 25.3422 2.08039 30.3646 5.85781 34.1422C9.63523 37.9198 14.6578 40 20 40C25.3422 40 30.3647 37.9197 34.1422 34.1422C37.9197 30.3647 40 25.3422 40 20C40 14.6578 37.9196 9.63539 34.1422 5.85781Z" fill="#33CC95"/>
<g clip-path="url(#clip0)">
<path d="M20.5714 8V33.1429" stroke="white" stroke-width="2" stroke-linecap="round" stroke-linejoin="round"/>
<path d="M26.2857 12.5714H17.7143C16.6534 12.5714 15.636 12.9929 14.8859 13.743C14.1357 14.4931 13.7143 15.5106 13.7143 16.5714C13.7143 17.6323 14.1357 18.6497 14.8859 19.3999C15.636 20.15 16.6534 20.5714 17.7143 20.5714H23.4286C24.4894 20.5714 25.5069 20.9929 26.257 21.743C27.0072 22.4932 27.4286 23.5106 27.4286 24.5714C27.4286 25.6323 27.0072 26.6497 26.257 27.3999C25.5069 28.15 24.4894 28.5714 23.4286 28.5714H13.7143" stroke="white" stroke-width="2" stroke-linecap="round" stroke-linejoin="round"/>
</g>
<path d="M73.7559 13.248V30H70.3959V19.104L65.9079 30H63.3639L58.8519 19.104V30H55.4919V13.248H59.3079L64.6359 25.704L69.9639 13.248H73.7559ZM89.7979 16.704L81.5659 36.288H77.9899L80.8699 29.664L75.5419 16.704H79.3099L82.7419 25.992L86.2219 16.704H89.7979ZM119.72 13.248L115.04 30H111.08L107.936 18.072L104.648 30L100.712 30.024L96.1999 13.248H99.7999L102.752 26.256L106.16 13.248H109.904L113.12 26.184L116.096 13.248H119.72ZM121.05 23.304C121.05 21.96 121.314 20.768 121.842 19.728C122.386 18.688 123.114 17.888 124.026 17.328C124.954 16.768 125.986 16.488 127.122 16.488C128.114 16.488 128.978 16.688 129.714 17.088C130.466 17.488 131.066 17.992 131.514 18.6V16.704H134.898V30H131.514V28.056C131.082 28.68 130.482 29.2 129.714 29.616C128.962 30.016 128.09 30.216 127.098 30.216C125.978 30.216 124.954 29.928 124.026 29.352C123.114 28.776 122.386 27.968 121.842 26.928C121.314 25.872 121.05 24.664 121.05 23.304ZM131.514 23.352C131.514 22.536 131.354 21.84 131.034 21.264C130.714 20.672 130.282 20.224 129.738 19.92C129.194 19.6 128.61 19.44 127.986 19.44C127.362 19.44 126.786 19.592 126.258 19.896C125.73 20.2 125.298 20.648 124.962 21.24C124.642 21.816 124.482 22.504 124.482 23.304C124.482 24.104 124.642 24.808 124.962 25.416C125.298 26.008 125.73 26.464 126.258 26.784C126.802 27.104 127.378 27.264 127.986 27.264C128.61 27.264 129.194 27.112 129.738 26.808C130.282 26.488 130.714 26.04 131.034 25.464C131.354 24.872 131.514 24.168 131.514 23.352ZM141.539 12.24V30H138.179V12.24H141.539ZM148.219 12.24V30H144.859V12.24H148.219ZM163.899 23.064C163.899 23.544 163.867 23.976 163.803 24.36H154.083C154.163 25.32 154.499 26.072 155.091 26.616C155.683 27.16 156.411 27.432 157.275 27.432C158.523 27.432 159.411 26.896 159.939 25.824H163.563C163.179 27.104 162.443 28.16 161.355 28.992C160.267 29.808 158.931 30.216 157.347 30.216C156.067 30.216 154.915 29.936 153.891 29.376C152.883 28.8 152.091 27.992 151.515 26.952C150.955 25.912 150.675 24.712 150.675 23.352C150.675 21.976 150.955 20.768 151.515 19.728C152.075 18.688 152.859 17.888 153.867 17.328C154.875 16.768 156.035 16.488 157.347 16.488C158.611 16.488 159.739 16.76 160.731 17.304C161.739 17.848 162.515 18.624 163.059 19.632C163.619 20.624 163.899 21.768 163.899 23.064ZM160.419 22.104C160.403 21.24 160.091 20.552 159.483 20.04C158.875 19.512 158.131 19.248 157.251 19.248C156.419 19.248 155.715 19.504 155.139 20.016C154.579 20.512 154.235 21.208 154.107 22.104H160.419ZM170.263 19.464V25.896C170.263 26.344 170.367 26.672 170.575 26.88C170.799 27.072 171.167 27.168 171.679 27.168H173.239V30H171.127C168.295 30 166.879 28.624 166.879 25.872V19.464H165.295V16.704H166.879V13.416H170.263V16.704H173.239V19.464H170.263Z" fill="#33CC95"/>
<defs>
<clipPath id="clip0">
<rect width="27.4286" height="27.4286" fill="white" transform="translate(6.85715 6.85714)"/>
</clipPath>
</defs>
</svg>
